<svg xmlns="http://www.w3.org/2000/svg" viewBox="0 0 149.33 79.26"><defs><style>.cls-1{fill:#010101;}</style></defs><g id="Capa_2" data-name="Capa 2"><g id="Capa_5" data-name="Capa 5"><path class="cls-1" d="M53.38,73.56v-.1l.2,0a.64.64,0,0,1-.21.25.57.57,0,0,1-.49.06l-.15-.08-.31,0-.36,0a2,2,0,0,0-.33.08.68.68,0,0,0-.27.13,9.59,9.59,0,0,0-.07,1.06c0,.36,0,.71,0,1.06a2.37,2.37,0,0,1,.09.36q0,.19,0,.36a1.08,1.08,0,0,1,.08.19l.06.19a1.67,1.67,0,0,0,.08.2.42.42,0,0,0,.11.16l.11,0,.18,0v0a.1.1,0,0,0,0,.17l.16.11a1,1,0,0,1,0,.17.5.5,0,0,1-.06.24.3.3,0,0,1-.19.16.32.32,0,0,1-.14,0h-.27l-.06,0-.06,0-.06,0h-.09a.63.63,0,0,0-.13-.2.2.2,0,0,0-.2-.07V78a.36.36,0,0,0,0-.2.28.28,0,0,0-.12-.14,3.91,3.91,0,0,1-.07-.39,1,1,0,0,0-.14-.37,1.57,1.57,0,0,0,0-.43q0-.19-.09-.42a.63.63,0,0,0,0-.27v-.21a2.21,2.21,0,0,1,0-.42.7.7,0,0,1,.08-.2.44.44,0,0,1-.06-.16,1,1,0,0,1,0-.17,2.11,2.11,0,0,1,0-.25l0-.25h-.05a.19.19,0,0,0-.13,0l-.12,0-.07.16h-.07s-.15-.16-.22-.13a.37.37,0,0,0-.2.12,2.24,2.24,0,0,0-.52,0,4.37,4.37,0,0,0-.52.12,4.44,4.44,0,0,0-.52.15l-.5.14a4.17,4.17,0,0,0-.1.6,1,1,0,0,0,.08.62v.19a.15.15,0,0,0-.09.19l0,.11,0,.11,0,.09a.61.61,0,0,0,.16.16.79.79,0,0,1,.2,0,.54.54,0,0,1,.27.07,1.14,1.14,0,0,0,.26.09,1,1,0,0,1-.1.21.57.57,0,0,0-.07.22l-.06,0h-.05l0,0a.14.14,0,0,0,0,.09.83.83,0,0,1-.22.08l-.22,0h-.45l0-.07,0,0-.06,0-.06,0a.42.42,0,0,1-.09-.14,1.07,1.07,0,0,1-.07-.19L46.88,77a.56.56,0,0,0-.09-.17c0-.12,0-.23,0-.34s0-.21,0-.33,0-.41,0-.62,0-.41,0-.62a.17.17,0,0,0-.16-.06.5.5,0,0,1-.17,0,1.35,1.35,0,0,1-.15-.26.73.73,0,0,1-.07-.29.51.51,0,0,1,0-.17l.15,0a.12.12,0,0,0,.09-.13.22.22,0,0,0,.13,0,.41.41,0,0,0,.16,0l.15,0a2,2,0,0,0,.05-.24.7.7,0,0,0,0-.25,1,1,0,0,0,.14-.35c0-.13-.16-.37-.16-.37v-.11l.22-.11s0-.12,0-.19l.06-.2a2.33,2.33,0,0,0,0-.28c0-.08-.37-.27-.37-.27v0l0-.06,0,0v0c0-.17.05-.33.07-.49a3.89,3.89,0,0,1,.12-.49,1.34,1.34,0,0,1-.06-.4,1.88,1.88,0,0,1,.09-.57.86.86,0,0,1,0-.24,1.09,1.09,0,0,1,0-.18.61.61,0,0,0,0-.19.28.28,0,0,0,.13-.11.63.63,0,0,1,.12-.11.51.51,0,0,1,.39.15.55.55,0,0,1,.16.4.59.59,0,0,1-.1.34,1.87,1.87,0,0,1,0,.34,3.64,3.64,0,0,1,0,.57,3.79,3.79,0,0,0,0,.58.63.63,0,0,0,0,.27,2.26,2.26,0,0,1,0,.26c0,.08,0,.15-.05.22a2.07,2.07,0,0,0,0,.22c0,.12,0,.24,0,.36a1.86,1.86,0,0,1,0,.34l0,.11,0,.09a1.22,1.22,0,0,0,0,.33,1.93,1.93,0,0,1,0,.34l0,.11,0,.11,0,.08a11,11,0,0,0,1.4-.21c.46-.1.93-.18,1.4-.25a.42.42,0,0,0,.06-.21l0-.13a4.7,4.7,0,0,0,.12-.51c0-.17.06-.35.08-.52s0-.34,0-.51l.06-.52,0-.26a2.44,2.44,0,0,1,.06-.26l0-.09,0-.09-.05-.05,0,0v0h0a.44.44,0,0,0,0-.15c0-.05,0-.1,0-.16a.77.77,0,0,1,0-.15.31.31,0,0,1,.06-.13l0-.1,0-.11v-.08s0-.08,0-.13V69a.17.17,0,0,1,.09-.16,1.59,1.59,0,0,1-.06-.3c0-.11,0-.21,0-.32a.55.55,0,0,1,.1-.35.37.37,0,0,1,.34-.14.59.59,0,0,1,.23,0,.62.62,0,0,1,.18.14,1.45,1.45,0,0,1,0,.35,1.55,1.55,0,0,1,0,.22,1.48,1.48,0,0,0,0,.21.47.47,0,0,0,0,.17l0,.16a.8.8,0,0,0-.11.25,2.89,2.89,0,0,0,0,.29,2.83,2.83,0,0,0,0,.29c0,.11,0,.2,0,.28a4.85,4.85,0,0,1-.08.53c0,.17-.07.34-.12.52a.45.45,0,0,1,0,.16,1.35,1.35,0,0,1,0,.29.67.67,0,0,0,0,.28,1.63,1.63,0,0,0-.07.3l0,.31v.32a1.59,1.59,0,0,1-.06.3l.06,0,0,.07a1.39,1.39,0,0,1,.4-.06h.64a1,1,0,0,0,.25,0l.25-.07a.7.7,0,0,1,.25,0,.32.32,0,0,1,.26.12c0,.06,0,.12,0,.18A1.09,1.09,0,0,1,53.38,73.56Z"/><path class="cls-1" d="M61.91,67.71v.14s0,.09,0,.13l-.08,0h-.17l0,0v.06h-.13a.29.29,0,0,1-.13,0l-.2.06-.19.09-.19.08a.8.8,0,0,1-.21,0,.42.42,0,0,1-.18.11l-.22.07L60,68.6a.38.38,0,0,0-.16.12.9.9,0,0,0-.32.09l-.3.14a2.2,2.2,0,0,1-.31.15,1,1,0,0,1-.33.09l-.11.08-.14.06-.13.06-.1.51h0l0-.44,0,0h0l-.37.17a3.39,3.39,0,0,1-.39.18l-.79.32a5,5,0,0,0-.77.37,4.75,4.75,0,0,0-.14.63,6,6,0,0,1-.18.61v.69a1.32,1.32,0,0,0-.09.3c0,.1,0,.21,0,.31v.2l.4-.13L56,73l.2,0a.73.73,0,0,0,.2,0,.44.44,0,0,0,.16-.06l.17-.07a3.29,3.29,0,0,1,.44-.16,2.46,2.46,0,0,1,.45-.11l.16-.11a.34.34,0,0,1,.17,0l.11,0a1.39,1.39,0,0,1,.28-.12.65.65,0,0,1,.31,0l.08-.07h.22l.16-.07.17,0,.17,0,.14-.08a.28.28,0,0,1,.16,0,.6.6,0,0,1,.11.12,1,1,0,0,1,.07.15.52.52,0,0,0,.07.15l0,.09-.07.06-.06.06,0,.08a1.59,1.59,0,0,0-.48.07l-.45.16-.46.18a1.88,1.88,0,0,1-.47.1l-.09.06-.11,0-.09,0-.07.08-.09,0a.62.62,0,0,0-.23.07.58.58,0,0,1-.26.06h-.08a.22.22,0,0,1-.1.09l-.14,0-.14.05a.22.22,0,0,0-.11.1h-.09l-.26,0a.32.32,0,0,0-.21.15l-.1,0a.58.58,0,0,0-.18,0l-.15.09-.16.1a.51.51,0,0,1-.17.07,1.66,1.66,0,0,0-.26.61,5.52,5.52,0,0,0-.1.71l-.06.73a3.86,3.86,0,0,1-.11.68,2.1,2.1,0,0,1,.06.24c0,.08,0,.17,0,.26a2.45,2.45,0,0,0,0,.27,2.21,2.21,0,0,0,0,.25.7.7,0,0,0,.14.27.76.76,0,0,1,.15.26l.07,0h.08a1,1,0,0,0,.46-.1,1.78,1.78,0,0,0,.36-.25,2.42,2.42,0,0,0,.33-.31,1.93,1.93,0,0,1,.35-.29h.24s.07,0,.09,0a1,1,0,0,1,.09-.13l.1-.1a.44.44,0,0,1,.16-.06.29.29,0,0,1,.11-.18.27.27,0,0,0,.11-.18h0l.09,0,.12-.1a.71.71,0,0,1,.13-.12l.14-.11.45-.32a2.41,2.41,0,0,0,.41-.37h0l.09,0s.05,0,.1,0a1.19,1.19,0,0,0,.09-.15.47.47,0,0,0,.06-.15l.25,0h.32l.06,0a.57.57,0,0,1,.1.31c0,.11,0,.22,0,.33h0l-.07,0-.07.06-.08.08-.07.06-.18.1-.17.09-.17.11a.48.48,0,0,0-.12.16l-.3.13-.27.15-.07.08,0,.08a.84.84,0,0,0-.35.21q-.14.13-.27.3h0l-.06,0s0,0-.09,0a2.91,2.91,0,0,1-.31.3l-.33.28-.34.28c-.11.1-.22.2-.32.31l-.19.07c-.06,0-.14-.22-.14-.22h0a.15.15,0,0,0-.12,0l-.08.1-.33.08a1.48,1.48,0,0,1-.35,0,.6.6,0,0,1-.24,0,.94.94,0,0,1-.22-.12,1.56,1.56,0,0,1-.2-.16c-.06,0-.11-.11-.16-.16l-.12-.32a.8.8,0,0,1-.08-.33v-.14l0-.05-.05,0a1.1,1.1,0,0,1,0-.18,1.1,1.1,0,0,0,0-.18L53.94,77c0-.13,0-.25-.07-.37l.05,0,0-.06s0-.09,0-.14a.77.77,0,0,1,0-.15A.25.25,0,0,1,54,76l0-.08,0-.09s0-.06,0-.09,0-.1,0-.17a1.16,1.16,0,0,0,0-.18.89.89,0,0,0,0-.11c0-.24.07-.48.1-.71a6,6,0,0,1,.11-.7.52.52,0,0,0-.2-.09.32.32,0,0,1-.17-.1.35.35,0,0,1-.06-.14.4.4,0,0,1,0-.15A.45.45,0,0,1,54,73a.71.71,0,0,1,.38-.16,3.58,3.58,0,0,0,.16-.56c0-.19.06-.38.08-.57l.06-.59a3.7,3.7,0,0,1,.1-.58h-.05s-.2.49-.3.52l-.3.11h0a1.33,1.33,0,0,1-.22-.49.72.72,0,0,1,.06-.29.76.76,0,0,0,.23-.13l.2-.15c.07-.06.14-.1.21-.15a.73.73,0,0,1,.24-.07,2.36,2.36,0,0,1,.08-.45A1.68,1.68,0,0,0,55,69v-.18a.52.52,0,0,0,.07-.15.78.78,0,0,0,0-.16c0-.06,0-.12,0-.18l0-.17.11-.07.07-.06.09-.06a.39.39,0,0,1,.15,0,.54.54,0,0,1,.43.21.9.9,0,0,1,.14.2l.11.24a.21.21,0,0,1-.07.12l-.09.1L56,69a1,1,0,0,1,0,.24.33.33,0,0,0,.15,0,.42.42,0,0,0,.21-.06,2.72,2.72,0,0,0,.13-.63h0l0,.47.05.17h0s.12-.24.19-.27l.2-.08.22-.08a.76.76,0,0,0,.19-.12l.1,0a.4.4,0,0,0,.15,0l.14-.07a.94.94,0,0,1,.15-.06.39.39,0,0,1,.18,0h.07l.28,0v-.07c-.07,0,.08-.08.21-.14s.26-.11.41-.19h0l0,0v0l0-.08,0-.09h.08l.14,0,.15-.06.13-.07.14,0,.1,0,.1-.07.1,0h.05l.07-.06,0-.08a2.4,2.4,0,0,0,.53-.12,2.59,2.59,0,0,0,.46-.26l.17,0a.44.44,0,0,0,.16,0l.09.17c0,.06.08.08.17.08v.17Z"/><path class="cls-1" d="M68.64,74.36a.74.74,0,0,1,0,.25,2.25,2.25,0,0,0-.11.22h0l-.09,0-.07,0c-.15.17-.3.33-.46.48a3.48,3.48,0,0,1-.52.41l-.15.09-.17.08,0,0-.05,0a.58.58,0,0,0-.12.1.83.83,0,0,1-.13.14.93.93,0,0,1-.15.13.41.41,0,0,1-.19,0l-.11.1-.1.12a2.69,2.69,0,0,0-.61.31l-.56.36a2.47,2.47,0,0,1-.36.19l-.09,0-.1,0a4.59,4.59,0,0,1-.51.1,3.12,3.12,0,0,1-.52,0,2.27,2.27,0,0,1-.63-.08v0h0l-.38,0v0s.14,0,0-.09a.31.31,0,0,1-.16-.24l0,0-.06,0a3.25,3.25,0,0,0-.23-.29.72.72,0,0,1-.2-.31l0-.07v-.08a.14.14,0,0,0-.14-.11l0-.07v-.09l0-.08a1.42,1.42,0,0,1-.11-.35,2.19,2.19,0,0,1,0-.36,3.62,3.62,0,0,1,0-.47c0-.16,0-.32,0-.48a.9.9,0,0,0,.08-.21.34.34,0,0,1,.09-.2l0,0,0,0a1.06,1.06,0,0,1,0-.31.88.88,0,0,0,.06-.33.15.15,0,0,0,.08-.11s-.07-.12-.07-.12v0a1,1,0,0,0,.18-.23l.06-.23c0-.08,0-.15,0-.22a.83.83,0,0,0,0-.22L62,72A.78.78,0,0,1,62,71.9c0-.05,0-.1,0-.14s0-.07,0-.1l0-.09,0-.08a.53.53,0,0,1,0-.12s0-.08,0-.11a2.33,2.33,0,0,0,0-.28,2.56,2.56,0,0,0,0-.27,8.2,8.2,0,0,0,.1-.85c0-.29,0-.57,0-.86l.23-.12a.7.7,0,0,1,.25,0h.08l.07,0a.6.6,0,0,0,.13.25,1.07,1.07,0,0,1,.15.22,1.1,1.1,0,0,0-.06.26l0,.26,0,.25a1.83,1.83,0,0,1-.08.25l-.82.07v.08s.83.14.81.21a1.42,1.42,0,0,1,0,.2c0,.07,0,.14,0,.21a.67.67,0,0,0,0,.2l0,.05,0,.06,0,.15,0,.16a1,1,0,0,1,0,.17l-.12.46c-.05.16.17.48.17.48v0s-.32.18-.35.27a.93.93,0,0,0,0,.29c0,.15-.11.29-.16.44a1.32,1.32,0,0,0-.08.44v.17a1.09,1.09,0,0,0-.08.31c0,.1,0,.21,0,.31a2.36,2.36,0,0,0,0,.25,2.54,2.54,0,0,0,0,.29,2.47,2.47,0,0,0,.06.29.85.85,0,0,0,.09.22,1.17,1.17,0,0,0,.46.45,1.72,1.72,0,0,0,.61.22.79.79,0,0,1,.22-.06h.22a1.25,1.25,0,0,1,.25-.09l.26-.07.08,0,.07,0,.09-.07.08-.09a1.69,1.69,0,0,0,.31-.13l.29-.17.28-.16a1.77,1.77,0,0,1,.31-.15l.07-.07,0-.1.05,0a.16.16,0,0,0,.13-.06l.09-.12a.66.66,0,0,0,.2-.06.29.29,0,0,0,.14-.13,1,1,0,0,0,.33-.14,3.15,3.15,0,0,0,.29-.22,3.11,3.11,0,0,1,.28-.23,1,1,0,0,1,.31-.18l0-.07,0-.07a.39.39,0,0,0,.2-.08l.18-.12A.37.37,0,0,1,68.64,74.36Z"/><path class="cls-1" d="M74.07,78a.27.27,0,0,1-.11.19.17.17,0,0,1-.15,0h0s-.1.15-.15.16l-.15,0-.09,0-.07-.06a.33.33,0,0,1-.17,0,.67.67,0,0,1-.34-.1,1.37,1.37,0,0,0-.32-.16.91.91,0,0,0-.11-.16l-.13-.15a.86.86,0,0,1-.13-.14.5.5,0,0,1-.1-.19l0,.11h-.07a.69.69,0,0,0,0-.31.17.17,0,0,0-.12-.08.45.45,0,0,0,0-.16.35.35,0,0,0-.07-.12l-.09-.11a.38.38,0,0,1-.09-.13l-.13,0h-.14a2,2,0,0,0-.72.14l-.08,0-.08,0h0l-.1,0-.1,0h0l-.05,0a.87.87,0,0,1-.22,0c-.22,0-.44.07-.67.09a2.4,2.4,0,0,0-.64.16.16.16,0,0,0-.08.1.29.29,0,0,0,0,.13.4.4,0,0,0-.13.16,1.8,1.8,0,0,0-.08.21,1.42,1.42,0,0,1-.07.22.52.52,0,0,1-.11.19l0,.1a.49.49,0,0,1-.08.23.94.94,0,0,0-.12.22l-.06.21a.62.62,0,0,1-.07.19.35.35,0,0,1-.13.14.33.33,0,0,1-.22.05.39.39,0,0,1-.24-.05.43.43,0,0,1-.16-.14.54.54,0,0,1-.1-.2.86.86,0,0,1-.06-.23,2.52,2.52,0,0,1,.16-.29,1.21,1.21,0,0,0,.11-.32.61.61,0,0,0,.21-.24.82.82,0,0,0,.07-.31.39.39,0,0,0,.12-.14.72.72,0,0,0,0-.19l-.39,0a1.61,1.61,0,0,1-.38-.08V77a.35.35,0,0,0,0-.18.13.13,0,0,1,0-.18v-.06s0-.08,0-.13l.1-.12.12-.08a.39.39,0,0,1,.18,0l.29,0,.28,0,.21,0c.11-.23.21-.47.3-.71a4.52,4.52,0,0,0,.2-.72,1.14,1.14,0,0,0,.1-.19.86.86,0,0,0,.07-.21,2.23,2.23,0,0,0,0-.23,1.55,1.55,0,0,0,0-.21.55.55,0,0,0,.12-.24l.06-.31c0-.1,0-.21,0-.31s-.25-.27-.25-.27v-.07s.35-.14.33-.2l.05-.07,0-.1a4,4,0,0,1,.07-.69c0-.23.16-.69.16-.69v-.15l0,0,0,0a.91.91,0,0,1,0-.17c0-.08,0-.13,0-.18a6.34,6.34,0,0,0,0-.76c0-.21,0-.42,0-.63s0-.41,0-.62l.05-.09,0-.08.12-.06a.19.19,0,0,1,.12,0h.07l.06.08.05.09.07.07a.17.17,0,0,0,.12,0c0,.13.09.2.2.2a.88.88,0,0,0,.09.2.34.34,0,0,0,.14.15V69a.41.41,0,0,0,0,.19.66.66,0,0,0,.12.17h0s.06.09,0,.11a.39.39,0,0,1,.1.19l.06.22a.83.83,0,0,0,.06.21c0,.06-.23.15-.23.15v0l.32,0,0,0A1.8,1.8,0,0,1,71,71a5.45,5.45,0,0,0,.14.58l.08,0,.06,0a.14.14,0,0,0,0,.11.14.14,0,0,1,0,.11.18.18,0,0,1,0,.16c0,.06-.1.15-.1.15v0l.15,0,.49,0v0c-.47.18-.44.36-.41.54s0,.36.07.54,0,.36.08.53a4.42,4.42,0,0,0,.14.52v0l0,0,0,0,0,.09.06.08v.09a.59.59,0,0,0,0,.23l.09.21a.85.85,0,0,1,.09.22.5.5,0,0,1,0,.24.34.34,0,0,0,.12.12l.15.08a.71.71,0,0,1,.14.1.22.22,0,0,1,.09.14.29.29,0,0,0-.08.14.42.42,0,0,1-.09.14,1.36,1.36,0,0,0,.13.24l.15.22.16.22a1.14,1.14,0,0,1,.15.23.12.12,0,0,1,.12,0,.14.14,0,0,0,.13,0,.34.34,0,0,1,0,.14,1.06,1.06,0,0,1,.31,0h.3a.5.5,0,0,0,.17,0l0,.1,0,.12,0,.13Zm-2.91-2.13c-.07-.35-.14-.71-.22-1.06s-.14-.7-.19-1.06a5.54,5.54,0,0,1-.07-.57l-.06-.57a5.43,5.43,0,0,0-.09-.56c0-.18-.1-.37-.63-.54v0l.48,0,.16-.05v0c-.21,0-.26-.12-.29-.2l-.06-.27a2.68,2.68,0,0,0-.07-.27.59.59,0,0,0-.14-.23c0,.3-.06.59-.08.89s-.05.59-.06.89a.2.2,0,0,0-.1.15.62.62,0,0,0,0,.19v.13l0,.13a3.49,3.49,0,0,0-.2.72c0,.24-.08.48-.14.72,0,0,0,0,0,.11a.94.94,0,0,0,0,.16c0,.06,0,.11,0,.15s0,.07,0,.08v.21l-.11.12a2.66,2.66,0,0,1-.12.56c0,.19-.1.37-.16.56h.21a4,4,0,0,0,.49,0l.5-.06.18,0h.36l.08,0,.08,0,.11,0a.31.31,0,0,0,.13,0Z"/><path class="cls-1" d="M80.07,70.76a2.32,2.32,0,0,1-.09.7,3.5,3.5,0,0,1-.32.81c-.12.22-.25.44-.38.66a5.65,5.65,0,0,0-.39.69l-.06,0,0,.06,0,.06-.07,0a1.23,1.23,0,0,1-.17.32c-.07.1-.15.19-.23.29l-.23.28a3.21,3.21,0,0,0-.19.31h-.13a10.77,10.77,0,0,1-.94,1.12,7.11,7.11,0,0,1-1.13.85l-.05.08,0,.08a.81.81,0,0,0-.14.12l-.11.15a1,1,0,0,1-.11.15.44.44,0,0,1-.15.12l-.22,0-.21,0h-.18a.25.25,0,0,1-.14-.06.26.26,0,0,0-.17,0H74.1a1.7,1.7,0,0,0-.15-.22.44.44,0,0,1-.08-.25.57.57,0,0,1,0-.18.57.57,0,0,0,0-.18.92.92,0,0,0-.07-.36,1.09,1.09,0,0,1-.06-.36v-.12l0-.12a.17.17,0,0,0-.06-.12l0-.08,0-.08a.66.66,0,0,0,0-.14.57.57,0,0,1,0-.13,1.83,1.83,0,0,1,0-.33,1.7,1.7,0,0,1,.06-.31l0-.09,0-.07a1.51,1.51,0,0,0,.07-.37.36.36,0,0,0-.21-.4v-.41a.42.42,0,0,0,.25-.37l0-.15a.36.36,0,0,0,0-.14l0-.12-.06-.09.06-.07v-.09a1,1,0,0,0,0-.24,2,2,0,0,0,0-.26v-.27a6.79,6.79,0,0,0,0-.9,9.3,9.3,0,0,1-.08-1.19h0l-.08.31-.07,0-.07,0-.09,0a.91.91,0,0,1-.21.18,2,2,0,0,1-.25.14l-.27.11-.26.1a.5.5,0,0,1-.19-.13l-.14-.18-.41-.06v-.06a3.22,3.22,0,0,0,.5-.33c.07-.08.14-.16.22-.83h0l.06.58.07.06h.15a2,2,0,0,1,.46-.3,3.16,3.16,0,0,1,.52-.17.66.66,0,0,1,.23-.17.51.51,0,0,1,.27-.06h.18c.21-.09.4-.18.59-.24a1.72,1.72,0,0,1,.64-.11l.06,0,0,0,0,0,0,0v0l0,0h0l.07,0,0,.05.16-.1.17-.07.23,0,.24,0,.18,0a.24.24,0,0,0,.16-.07l0,0a.28.28,0,0,0,.15.08.41.41,0,0,0,.16,0l.16,0a.25.25,0,0,1,.15.05l.1,0,.1.06.13,0a.2.2,0,0,1,.11,0l0,0,0,0a.29.29,0,0,0,.18.07.48.48,0,0,1,.2.07.25.25,0,0,0,.16.22l.27.11,0,.1a.81.81,0,0,1,.16.16,1.15,1.15,0,0,1,.14.17l.13.19a1.15,1.15,0,0,0,.14.17.12.12,0,0,0,0,.1.17.17,0,0,1,0,.12.92.92,0,0,1,.17.22.27.27,0,0,0,0,.15.4.4,0,0,0,0,.15.77.77,0,0,1,0,.15Zm-.64-.18a1.32,1.32,0,0,0-.08-.44,3.52,3.52,0,0,1-.15-.42.12.12,0,0,1-.13-.07.38.38,0,0,0-.09-.13.23.23,0,0,1-.19-.22l-.31-.14a.71.71,0,0,1-.27-.21l-.56-.18a1.61,1.61,0,0,0-.57-.08H76.9a.28.28,0,0,0-.13,0l-.13,0a.24.24,0,0,1-.14,0,1.4,1.4,0,0,1-.34.13l-.36.08-.36.09a.94.94,0,0,0-.32.15l-.09,0H75a.2.2,0,0,0-.11,0l0,0v0l0,0h-.06v.14a1.72,1.72,0,0,0,0,.39,1.81,1.81,0,0,1,0,.4v.14l0,.14a.79.79,0,0,1,0,.2v.22c0,.07,0,.14,0,.21a.65.65,0,0,0,.05.2l0,.23v.23a4.7,4.7,0,0,0,0,.53,4.71,4.71,0,0,1,0,.53V73c0,.05,0,.1,0,.15a.59.59,0,0,1-.05.19.51.51,0,0,0,0,.2.76.76,0,0,0,0,.15s0,.1,0,.15v.11a4.87,4.87,0,0,0-.06.55c0,.18,0,.37,0,.55s0,.33,0,.5,0,.33,0,.5a.28.28,0,0,0,0,.13.59.59,0,0,0,.05.22.29.29,0,0,0,.16.15,2.05,2.05,0,0,0,.46-.25l.43-.3a.91.91,0,0,1,.16-.1l.14-.1.07-.07.07-.07.33-.36.59-.61a5.56,5.56,0,0,0,.53-.65,1.91,1.91,0,0,1,.14-.21A2.53,2.53,0,0,0,78,73.6l0-.09,0-.09.06-.06.06-.06.12-.15.11-.15c.12-.17.22-.33.32-.5s.21-.33.32-.5a1,1,0,0,1,.07-.29l.09-.26a2.5,2.5,0,0,0,.07-.26.83.83,0,0,0,0-.31l.07-.08a.1.1,0,0,0,0-.09Z"/><path class="cls-1" d="M88.48,67.71a.71.71,0,0,1,0,.14.57.57,0,0,1,0,.13l-.09,0H88.2l0,0v.06h-.13a.31.31,0,0,1-.12,0l-.2.06-.19.09-.19.08a.8.8,0,0,1-.21,0,.42.42,0,0,1-.18.11l-.22.07-.22.08a.38.38,0,0,0-.16.12.9.9,0,0,0-.32.09l-.31.14a2.1,2.1,0,0,1-.3.15,1,1,0,0,1-.33.09l-.11.08-.14.06-.13.06-.1.51h0l0-.44,0,0h0l-.37.17a2.64,2.64,0,0,1-.38.18l-.8.32a6,6,0,0,0-.77.37c0,.21-.1.42-.13.63a6.07,6.07,0,0,0-.06.61v.69a1,1,0,0,0-.09.3c0,.1,0,.21,0,.31v.2l.4-.13.39-.13.21,0a.73.73,0,0,0,.2,0,.44.44,0,0,0,.16-.06l.17-.07a3.75,3.75,0,0,1,.43-.16,2.56,2.56,0,0,1,.46-.11l.16-.11a.34.34,0,0,1,.17,0l.11,0L85,72.2a.8.8,0,0,1,.31,0l.08-.07h.22l.16-.07L86,72l.17,0,.14-.08a.28.28,0,0,1,.16,0,.6.6,0,0,1,.11.12,1,1,0,0,1,.07.15.52.52,0,0,0,.07.15l0,.09-.07.06-.06.06,0,.08a1.59,1.59,0,0,0-.48.07l-.45.16-.46.18a1.88,1.88,0,0,1-.47.1l-.09.06-.11,0-.09,0-.07.08-.09,0a.48.48,0,0,0-.23.07.58.58,0,0,1-.26.06h-.08a.22.22,0,0,1-.1.09l-.14,0-.15.05a.24.24,0,0,0-.1.1H83l-.26,0a.32.32,0,0,0-.21.15l-.1,0a.58.58,0,0,0-.18,0L82.1,74l-.16.1a.51.51,0,0,1-.17.07,1.66,1.66,0,0,0-.26.61,5.52,5.52,0,0,0-.1.71l-.06.73a5.07,5.07,0,0,1-.11.68,2.1,2.1,0,0,1,.06.24,2.06,2.06,0,0,1,0,.26l0,.27a2.21,2.21,0,0,0,0,.25.7.7,0,0,0,.14.27.76.76,0,0,1,.15.26l.07,0h.08a1.06,1.06,0,0,0,.46-.1,1.78,1.78,0,0,0,.36-.25,2.42,2.42,0,0,0,.33-.31,1.93,1.93,0,0,1,.35-.29h.12a.09.09,0,0,0,.09,0l.08-.13.11-.1a.47.47,0,0,1,.15-.06A.34.34,0,0,1,84,77a.32.32,0,0,0,.12-.18h0l.09,0,.11-.1a.75.75,0,0,1,.14-.12l.14-.11.45-.32a2.86,2.86,0,0,0,.41-.37h0l.08,0s0,0,.11,0l.09-.15.06-.15.24,0h.32l.07,0a.67.67,0,0,1,.1.31,1.86,1.86,0,0,0,0,.33h0l-.07,0-.08.06-.07.08-.07.06-.18.1-.18.09a.57.57,0,0,0-.16.11.48.48,0,0,0-.12.16l-.3.13-.27.15-.07.08,0,.08a.81.81,0,0,0-.34.21q-.14.13-.27.3h0l-.07,0s0,0-.09,0a2.13,2.13,0,0,1-.3.3l-.33.28-.34.28a3.14,3.14,0,0,0-.32.31l-.19.07c-.06,0-.14-.22-.14-.22h0a.14.14,0,0,0-.12,0l-.08.1L82,79a1.34,1.34,0,0,1-.35,0,.69.69,0,0,1-.24,0,.88.88,0,0,1-.21-.12,1.56,1.56,0,0,1-.2-.16l-.17-.16a1.75,1.75,0,0,0-.12-.32.78.78,0,0,1-.07-.33v-.14l0-.05,0,0a.47.47,0,0,1,0-.17c0-.06,0-.12,0-.18L80.51,77c0-.13-.05-.25-.08-.37l0,0,0-.06,0-.14a.77.77,0,0,1,0-.15.29.29,0,0,1,.12-.24l0-.08,0-.09a.28.28,0,0,1,0-.09s0-.1,0-.17a.85.85,0,0,1,0-.17.71.71,0,0,1,0-.12c0-.24.07-.48.09-.71s.07-.46.11-.7a.61.61,0,0,0-.2-.09.42.42,0,0,1-.17-.1.59.59,0,0,1-.06-.14.77.77,0,0,1,0-.15.43.43,0,0,1,.18-.36.68.68,0,0,1,.38-.16,2.73,2.73,0,0,0,.15-.56,5.58,5.58,0,0,0,.08-.57l.07-.59a5.4,5.4,0,0,1,.09-.58h0s-.21.49-.3.52l-.3.11h0a1.33,1.33,0,0,1-.22-.49.72.72,0,0,1,.06-.29.71.71,0,0,0,.22-.13l.21-.15a1.13,1.13,0,0,1,.21-.15.61.61,0,0,1,.24-.07,2.34,2.34,0,0,1,.07-.45,1.74,1.74,0,0,0,.06-.45V68.9l0-.09a.26.26,0,0,0,.07-.15.44.44,0,0,0,0-.16,1.09,1.09,0,0,0,0-.18c0-.06,0-.12,0-.17l.1-.07.08-.06.08-.06a.44.44,0,0,1,.16,0,.54.54,0,0,1,.25.06.52.52,0,0,1,.18.15.86.86,0,0,1,.13.2l.12.24a.21.21,0,0,1-.07.12l-.1.1a1.57,1.57,0,0,0,0,.23,1,1,0,0,1,0,.24.33.33,0,0,0,.14,0,.31.31,0,0,0,.21-.07c.07,0,.14-.62.14-.62h0l0,.47,0,.17h0s.11-.24.18-.27l.21-.08.21-.08a.82.82,0,0,0,.2-.12l.1,0a.4.4,0,0,0,.15,0l.14-.07a.94.94,0,0,1,.15-.06.35.35,0,0,1,.17,0h.08l.4,0v-.07c-.19,0-.05-.08.09-.14l.4-.19h0l0,0v0l0-.08,0-.09h.09L86,68l.14-.06.14-.07a.32.32,0,0,1,.14,0l.1,0,.09-.07.1,0h.06l.07-.06,0-.08a2.4,2.4,0,0,0,.53-.12,2.68,2.68,0,0,0,.47-.26l.16,0a.5.5,0,0,0,.17,0,1.3,1.3,0,0,1,.08.17c0,.06.08.08.17.08v.17Z"/><path class="cls-1" d="M96.82,76.44a.34.34,0,0,1-.34.33l-.15,0a.88.88,0,0,1-.35.17,3.19,3.19,0,0,0-.37.13l-.43,0a2.07,2.07,0,0,0-.43,0,.46.46,0,0,0-.16-.07l-.17,0-.17,0a.32.32,0,0,0-.16,0H93.7a.94.94,0,0,0-.15-.17l-.23-.11-.27-.1c-.09,0-.27.38-.27.38h0s-.12-.5-.19-.53l-.23-.06a1.41,1.41,0,0,1-.22-.06.46.46,0,0,1-.19-.08l-.17-.11a.33.33,0,0,0-.21,0,1.77,1.77,0,0,0-.31-.15l-.32-.11-.31-.12c-.11,0-.21-.09-.31,0h0l-.06-.15,0,0a.47.47,0,0,0-.12-.09l-.13-.1h-.12l-.14,0-.12,0a1.06,1.06,0,0,0-.09.35c0,.13,0,.26,0,.4l0,.4a1.59,1.59,0,0,1-.07.38l-.29.12v.23a.57.57,0,0,0,0,.22.59.59,0,0,0,0,.13l0,.13c0,.06,0,.11,0,.17v.3a.66.66,0,0,1,0,.14l-.16.09-.16.11a.12.12,0,0,0-.09-.14.12.12,0,0,0-.15.09v0a.08.08,0,0,1-.08.07h0l-.18-.15a.65.65,0,0,1-.16-.17v-.11L88,78a.88.88,0,0,0,0-.17l0-.21c0-.06,0-.13,0-.19a2.45,2.45,0,0,1,0-.27,2,2,0,0,1,.08-.26,3,3,0,0,0,.13-.49c0-.18,0-.35,0-.52s0-.35,0-.53a4.12,4.12,0,0,1,0-.51.66.66,0,0,0-.14-.2.37.37,0,0,1-.07-.25.28.28,0,0,1,.09-.23.68.68,0,0,0,.17-.21l0-.06.09-.85,0-.19c0-.07,0-.14,0-.19s0-.25,0-.37,0-.23,0-.35,0-.52.08-.78,0-.52,0-.77,0-.25,0-.37a2.2,2.2,0,0,0-.05-.37l-.3.08a.76.76,0,0,0-.28.15h-.06a1,1,0,0,0-.39.08l-.37.15a.44.44,0,0,1-.16.06,1,1,0,0,0-.17,0l-.09,0-.09.06-.13,0,0,.07,0,.07a.12.12,0,0,1-.11,0h.28a2.1,2.1,0,0,1-.38.42,1.06,1.06,0,0,1-.42.12l-.17.11a.36.36,0,0,1-.2.06.31.31,0,0,1-.13,0,.67.67,0,0,1-.1-.21.37.37,0,0,0-.12-.2.22.22,0,0,0,0-.11l0-.12.46-.19a2.35,2.35,0,0,0,.45-.22h.07a.32.32,0,0,0,.14,0l.12-.05.13,0a.22.22,0,0,1,.14,0,3,3,0,0,1,.56-.24,2.27,2.27,0,0,0,.55-.25h.07l0,0h0a.3.3,0,0,1,.13-.09l.15,0a.76.76,0,0,0,.16-.06.17.17,0,0,0,.09-.11.27.27,0,0,0,.12,0,.64.64,0,0,0,.24-.05.53.53,0,0,1,.24-.06h.06l.06,0,.07,0,0-.07.93-.16a7.46,7.46,0,0,1,1-.06.24.24,0,0,1,.3,0l.27,0H92l.61,0q.32,0,.63.12a3.89,3.89,0,0,1,.6.22,3.25,3.25,0,0,1,.53.32.84.84,0,0,0,.06.14.24.24,0,0,0,.1.1v0a.3.3,0,0,0,0,.16.32.32,0,0,1,0,.19.76.76,0,0,1,0,.21.53.53,0,0,0,0,.22,2,2,0,0,0-.14.22.59.59,0,0,0-.07.26,1.42,1.42,0,0,0-.25.3l-.22.32a1.74,1.74,0,0,1-.25.29,1.15,1.15,0,0,1-.33.21c0,.06,0,.12-.06.23H93.1l-.08,0-.11.06-.09.08a.19.19,0,0,0,0,.13h0a.37.37,0,0,0-.18.08l-.17.12-.26.17a.73.73,0,0,0-.24.22,4,4,0,0,0-.58.3,2.73,2.73,0,0,1-.6.28,1,1,0,0,1-.29.2.56.56,0,0,0-.19.16v0l-.09.12.11.1a.35.35,0,0,0,.14.06h.12a1.34,1.34,0,0,0,.36.22,2.86,2.86,0,0,0,.41.15l.43.15c.13,0,.26.11.38-.1h.19c.12.4.26.48.42.52a4.75,4.75,0,0,0,.46.14.56.56,0,0,0,.24.13c.09,0,.18,0,.27-.15h0l-.32.18v0l.39.05,0,0h.06l0,.36H94c.1-.33.21-.3.31-.26a.78.78,0,0,0,.3.07l.11,0,.07.06.06.08h.19a1.65,1.65,0,0,1,.32,0,1.88,1.88,0,0,1,.3.12,4.09,4.09,0,0,1,.49-.18,1.58,1.58,0,0,1,.41-.07v0a.4.4,0,0,1,.14.17A.56.56,0,0,1,96.82,76.44Zm-2.95-6.15a.22.22,0,0,0,0-.14l-.09-.1L93.64,70l-.11-.1-.39-.14-.39-.13-.2,0c-.07,0-.13,0-.2-.29h-.17l-.1.25-.09,0-.21,0h-.22a2.75,2.75,0,0,0-.4,0l-.4,0h-.17l-.17,0-.11,0-.15.06a.94.94,0,0,0-.15.06l-.12,0-.29.11v.1c.29.08.29.15.29.23l0,.23,0,.09,0,.1s0,.1.43.15v.15c-.46.12-.46.23-.47.34s0,.23,0,.35c0,.34-.07.67-.1,1s-.05.67-.06,1a2.7,2.7,0,0,0,.48-.16c.15-.08.31-.15.45-.24L91,73a4,4,0,0,1,.47-.21.67.67,0,0,1,.15-.14.4.4,0,0,0,.15-.14.14.14,0,0,0,.12,0l.1-.05a8.69,8.69,0,0,1,.75-.61,8.55,8.55,0,0,0,.74-.61,1,1,0,0,1,.1-.21l.15-.21.12-.21A.52.52,0,0,0,93.87,70.29Z"/><path class="cls-1" d="M96.45,76.78a.36.36,0,0,1-.09.24,1.16,1.16,0,0,0-.16.21.81.81,0,0,1-.22.07.87.87,0,0,0-.22,0l-.09.06-.13,0-.13-.07a1,1,0,0,0-.24,0,.3.3,0,0,1-.21-.08.92.92,0,0,1-.2-.31,2.77,2.77,0,0,1-.12-.41c0-.14,0-.28-.07-.42s0-.27,0-.37a4.89,4.89,0,0,1,0-.54,4.59,4.59,0,0,1,.1-.51v-.15l.31-.07v-.11l0,0a3.1,3.1,0,0,0,.15-.52c0-.18,0-.36.07-.54l.06-.55a4.51,4.51,0,0,1,.1-.53v-.2a1.27,1.27,0,0,1,0-.28.78.78,0,0,0,0-.28v-.1l.07-.1q0-.33,0-.66a4.87,4.87,0,0,0,0-.66,2,2,0,0,0,0-.34,1.83,1.83,0,0,1,0-.33V69a.34.34,0,0,1,0-.14.64.64,0,0,1,.4-.11.42.42,0,0,1,.29.09V69L96,69v-.25a.82.82,0,0,1,.1.44c0,.07,0,.14,0,.21a1.48,1.48,0,0,0,0,.21v.3c0,.1,0,.2,0,.3A6.85,6.85,0,0,1,96,71c0,.25,0,.52,0,.78a3.73,3.73,0,0,1-.09.67,4.63,4.63,0,0,0-.1.65v.27a1,1,0,0,1-.07.38,1,1,0,0,0-.08.39.39.39,0,0,0,0,.18,1.58,1.58,0,0,0-.09.31c0,.12,0,.25-.07.38s0,.26,0,.38,0,.24,0,.33a1.75,1.75,0,0,0,0,.4,1,1,0,0,0,.17.37.64.64,0,0,0,.2,0h.23a.57.57,0,0,1,.22,0,.27.27,0,0,1,.15.13v.06Zm1.32-11.6-.07.1-.06.08,0,.1a.66.66,0,0,0,0,.14,1.09,1.09,0,0,1-.13.17l-.14.15a1.07,1.07,0,0,0-.14.16.54.54,0,0,0-.11.18.44.44,0,0,0-.25.19c-.06.09-.11.18-.16.27a.61.61,0,0,0-.34.29,1,1,0,0,0-.11.44.44.44,0,0,1-.24.13l-.28,0h-.18l-.18,0a.35.35,0,0,1-.06-.14l0-.16,0-.16a.24.24,0,0,0,0-.14c.3-.28.58-.56.85-.86s.53-.59.79-.91v-.07l0-.09,0-.08,0-.09a.2.2,0,0,0,0-.11.8.8,0,0,1,.3-.06.51.51,0,0,1,.37.13A.69.69,0,0,1,97.77,65.18Z"/><path class="cls-1" d="M103.23,78a.27.27,0,0,1-.11.19.17.17,0,0,1-.15,0h0s-.1.15-.15.16l-.15,0-.09,0-.07-.06a.33.33,0,0,1-.17,0,.61.61,0,0,1-.33-.1,1.66,1.66,0,0,0-.33-.16.91.91,0,0,0-.11-.16l-.13-.15a.86.86,0,0,1-.13-.14.69.69,0,0,1-.1-.19l0,.11h-.07a.69.69,0,0,0,0-.31.17.17,0,0,0-.12-.08.45.45,0,0,0,0-.16.35.35,0,0,0-.07-.12l-.09-.11a.26.26,0,0,1-.08-.13l-.14,0h-.14a2,2,0,0,0-.72.14l-.08,0-.08,0h0l-.1,0-.1,0h0l0,0a.87.87,0,0,1-.22,0q-.33.06-.66.09a2.38,2.38,0,0,0-.65.16.12.12,0,0,0-.07.1.29.29,0,0,0,0,.13.4.4,0,0,0-.13.16l-.08.21a1.42,1.42,0,0,1-.07.22.52.52,0,0,1-.11.19l0,.1a.49.49,0,0,1-.08.23.94.94,0,0,0-.12.22l-.06.21a.62.62,0,0,1-.07.19.41.41,0,0,1-.12.14.37.37,0,0,1-.23.05.4.4,0,0,1-.24-.05.43.43,0,0,1-.16-.14.54.54,0,0,1-.1-.2.86.86,0,0,1-.06-.23,2.52,2.52,0,0,1,.16-.29.94.94,0,0,0,.11-.32.61.61,0,0,0,.21-.24.82.82,0,0,0,.07-.31.39.39,0,0,0,.12-.14.72.72,0,0,0,0-.19l-.39,0a1.72,1.72,0,0,1-.38-.08V77a.35.35,0,0,0,0-.18c0-.06,0-.12.11-.18v-.06c-.11,0-.08-.08,0-.13l.1-.12a.57.57,0,0,1,.13-.08.33.33,0,0,1,.17,0l.29,0,.28,0,.21,0c.11-.23.21-.47.3-.71a4.52,4.52,0,0,0,.2-.72,1.14,1.14,0,0,0,.1-.19.86.86,0,0,0,.07-.21,2.23,2.23,0,0,0,0-.23,1.48,1.48,0,0,0,0-.21.55.55,0,0,0,.12-.24,2.84,2.84,0,0,0,.06-.31c0-.1,0-.21.05-.31s.46-.27.46-.27v-.07s-.36-.14-.38-.2l0-.07,0-.1a3.25,3.25,0,0,1,.08-.69A5.2,5.2,0,0,1,98.5,71v-.15l0,0,0,0a.91.91,0,0,1,0-.17c0-.08,0-.13,0-.18a6.34,6.34,0,0,0,0-.76c0-.21,0-.42,0-.63s0-.41,0-.62l0-.09,0-.08.12-.06a.19.19,0,0,1,.12,0h.07l.06.08,0,.09.07.07a.17.17,0,0,0,.12,0c0,.13.09.2.2.2a.88.88,0,0,0,.09.2.34.34,0,0,0,.14.15V69a.41.41,0,0,0,.05.19.66.66,0,0,0,.12.17h0s0,.09-.06.11a.39.39,0,0,1,.1.19,1.41,1.41,0,0,1,.06.22.83.83,0,0,0,.06.21c0,.06.47.15.47.15v0l-.38,0,0,0a1.57,1.57,0,0,1,.19.55c0,.2.09.39.14.58l.08,0,.06,0a.11.11,0,0,0,0,.11.21.21,0,0,1,0,.11.18.18,0,0,1,.05.16.61.61,0,0,1,0,.15v0l.08,0,.56,0v0c-.54.18-.51.36-.48.54s0,.36.07.54.05.36.09.53a3,3,0,0,0,.13.52v0l0,0,0,0,0,.09.06.08v.09a.59.59,0,0,0,0,.23l.09.21a.85.85,0,0,1,.09.22.5.5,0,0,1,0,.24.46.46,0,0,0,.12.12l.15.08.15.1a.25.25,0,0,1,.08.14.29.29,0,0,0-.08.14.42.42,0,0,1-.09.14,1.36,1.36,0,0,0,.13.24l.15.22.16.22a1.14,1.14,0,0,1,.15.23.11.11,0,0,1,.12,0,.14.14,0,0,0,.13,0,.23.23,0,0,1,0,.14,1.06,1.06,0,0,1,.31,0h.3a.5.5,0,0,0,.17,0l0,.1,0,.12,0,.13Zm-2.91-2.13c-.07-.35-.14-.71-.22-1.06s-.13-.7-.19-1.06a5.54,5.54,0,0,1-.07-.57l-.06-.57a5.43,5.43,0,0,0-.09-.56c0-.18-.1-.37-.56-.54v0l.41,0,.23-.05v0c-.28,0-.33-.12-.35-.2a2.68,2.68,0,0,1-.07-.27,2.68,2.68,0,0,0-.07-.27.59.59,0,0,0-.14-.23c0,.3,0,.59-.08.89s0,.59-.06.89a.23.23,0,0,0-.1.15.62.62,0,0,0,0,.19v.13l0,.13a4.25,4.25,0,0,0-.2.72c0,.24-.08.48-.13.72a.39.39,0,0,0,0,.11s0,.11,0,.16,0,.11,0,.15,0,.07,0,.08v.21l-.11.12a3.47,3.47,0,0,1-.11.56l-.17.56h.21a4,4,0,0,0,.49,0l.5-.06.18,0h.36l.08,0,.08,0,.11,0a.28.28,0,0,0,.13,0Z"/><path class="cls-1" d="M41.3,5.32V54.41a3.26,3.26,0,0,0,3.18,3.31V59.1H29.23V57.71a3.27,3.27,0,0,0,3.18-3.32V6.16l-8.16,43.9,1.79,9-10.47.63L5.08,6.67V55a3.27,3.27,0,0,0,3.18,3.32v1.38H.64V58.35A3.26,3.26,0,0,0,3.81,55V5.34A3.33,3.33,0,0,0,1.7,2.27,5.74,5.74,0,0,0,0,2V.64H14.63l.91,4.55,2.71,13.7,5.43,27.36L31.51,4.33v0L32.2.64H44.48V2A3.26,3.26,0,0,0,41.3,5.32Z"/><path class="cls-1" d="M146.16,5.32V54.41a3.24,3.24,0,0,0,3.17,3.31V59.1H134.08V57.72a3.26,3.26,0,0,0,3.18-3.31V5.32A3.26,3.26,0,0,0,134.08,2V.64h15.25V2A3.25,3.25,0,0,0,146.16,5.32Z"/><path class="cls-1" d="M100.23,60.24A26.37,26.37,0,0,1,91,58.58a26.79,26.79,0,0,1-2.58-1.12,27,27,0,0,1-2.59,1.12,26.31,26.31,0,0,1-9.25,1.66C61,60.24,48.39,46.76,48.39,30.12S61,0,76.55,0A26.54,26.54,0,0,1,85.8,1.66a27,27,0,0,1,2.59,1.12A26.72,26.72,0,0,1,91,1.67,26.38,26.38,0,0,1,100.23,0c15.56,0,28.17,13.49,28.17,30.12S115.79,60.24,100.23,60.24Zm4.49-30.12a32.23,32.23,0,0,1-1.6,10c-3,8.34-10.22,8.59-10.22,8.59h0c2.81-6.08,3.3-14.7.76-23.53a39.55,39.55,0,0,0-7.13-14c-.5-.61-1-1.2-1.54-1.75a26,26,0,0,0-2.73-2.51A20,20,0,0,0,80.42,5.6c-3.75-2.42-7.78-3.32-11.55-2.24C59.42,6.07,55.2,20.25,59.44,35c4.13,14.37,14.74,24,24,22,.27,0,.53-.12.79-.19a12.17,12.17,0,0,0,1.85-.71c-.74-.47-1.47-1-2.17-1.5A30.76,30.76,0,0,1,72.07,30.12a31.74,31.74,0,0,1,1.48-9.67c2.87-8.7,10.35-9,10.35-9C81.07,17.58,80.59,26.2,83.12,35a39.73,39.73,0,0,0,7.14,14Q91,50,91.79,50.8a27.17,27.17,0,0,0,2.73,2.52q.89.7,1.83,1.32c3.76,2.42,7.8,3.33,11.57,2.25,9.45-2.72,13.67-16.9,9.42-31.68-4.13-14.38-14.75-24-24-22-.26.05-.52.12-.77.19a10.87,10.87,0,0,0-1.85.71c.74.46,1.47,1,2.18,1.5A30.78,30.78,0,0,1,104.72,30.12Z"/></g></g></svg>