<?xml version="1.0" encoding="UTF-8"?> <svg xmlns="http://www.w3.org/2000/svg" id="Capa_1" data-name="Capa 1" width="6.5461cm" height="3.6689cm" viewBox="0 0 185.5588 104"><defs><style>.cls-1{fill:#010101;}</style></defs><path class="cls-1" d="M67.7665,90.0081v.0583l-.0084.05a.72.72,0,0,1-.2244.2662.574.574,0,0,1-.3326.0914.5663.5663,0,0,1-.1954-.0249.9441.9441,0,0,1-.1622-.0915q-.15.0166-.3408.029t-.3826.0417a2.7708,2.7708,0,0,0-.3616.079.7614.7614,0,0,0-.2868.15,9.2854,9.2854,0,0,0-.079,1.1434q-.0047.57-.0209,1.1432a1.609,1.609,0,0,1,.0914.3866q.0249.2121.0334.3867a1.0439,1.0439,0,0,1,.0915.2037c.0219.0692.0443.14.0664.2121a1.694,1.694,0,0,0,.079.2078.7131.7131,0,0,0,.12.1829l.1207.0125.1121.0291v.05a.2173.2173,0,0,0,.0748.183c.05.0388.1052.08.1664.1247a.6692.6692,0,0,1,.0249.1746.5884.5884,0,0,1-.0624.2662.3468.3468,0,0,1-.2037.1746.5875.5875,0,0,1-.158-.0209.5862.5862,0,0,0-.1579-.0208l-.1248.0167-.0705-.0457-.0624-.0541-.0708-.0415-.0956-.0083a.6342.6342,0,0,0-.1329-.2163.2477.2477,0,0,0-.2247-.0831l.0084-.1a.5111.5111,0,0,0-.0458-.2163.3627.3627,0,0,0-.137-.1579q-.0417-.1914-.0749-.42a.9742.9742,0,0,0-.1414-.3949,2.0745,2.0745,0,0,0-.05-.4615q-.05-.22-.0914-.4532a1.2382,1.2382,0,0,0,.0333-.2992c0-.0776-.003-.1539-.0084-.2288s-.0084-.1482-.0084-.22a1.545,1.545,0,0,1,.0168-.2287.5794.5794,0,0,1,.0831-.22.51.51,0,0,1-.0665-.17.9433.9433,0,0,1-.0166-.1788,2.1916,2.1916,0,0,1,.0166-.2745l.0331-.266-.0581-.0083a.2808.2808,0,0,0-.1413.0333l-.1248.0582-.0749-.0083h-.0747a.8228.8228,0,0,0-.2452.0374.5075.5075,0,0,0-.2122.1289,3.0064,3.0064,0,0,0-.5654.054q-.2827.0543-.5612.1289t-.5529.1621q-.2743.0873-.5489.1538a6.5392,6.5392,0,0,0-.1.6527,6.6665,6.6665,0,0,0-.0331.6694v.2a1.2515,1.2515,0,0,0,.0166.2079l.0458.1206.0375.1206-.025.0914a.5228.5228,0,0,0,.1745.1746.7.7,0,0,1,.2162-.0415.5919.5919,0,0,1,.2828.0707.9245.9245,0,0,0,.2827.0956.972.972,0,0,1-.1.2286.6277.6277,0,0,0-.083.2453l-.0624.0167-.054.0041-.0374.0291a.1739.1739,0,0,0,.004.1.8609.8609,0,0,1-.2328.0791,2.2454,2.2454,0,0,1-.2368.0291q-.1208.0081-.2412.0082t-.2453.0084l-.0209-.079-.054-.0416-.0706-.0291-.0624-.0415a.3877.3877,0,0,1-.1039-.1539q-.0374-.0957-.0749-.2c-.0249-.0694-.0514-.1372-.0789-.2037a.9728.9728,0,0,0-.1-.183q-.0168-.183-.0249-.3575t-.0084-.3576q0-.3408.0249-.6693t.0418-.6777a.2079.2079,0,0,0-.1707-.0664.527.527,0,0,1-.1869-.0167,1.2144,1.2144,0,0,1-.1663-.2785.7992.7992,0,0,1-.0665-.32.6541.6541,0,0,1,.025-.1746c.05-.0166.1051-.0332.1663-.05a.133.133,0,0,0,.1-.133.2805.2805,0,0,0,.1413.0333.5733.5733,0,0,0,.1663-.025c.0556-.0166.1108-.03.1664-.0415q.0332-.1331.054-.262a.9844.9844,0,0,0,.0043-.27,1.0047,1.0047,0,0,0,.1538-.3825q.0375-.2078.054-.3991v-.1164l.0082-.1164q.0168-.0915.05-.208c.0222-.0775.0418-.15.0583-.2161a1.8306,1.8306,0,0,0,.054-.2994q.0126-.1411.0125-.291v-.0332L61.0479,87.9l-.0331-.0623.0082-.0167q.0331-.2659.0792-.528a3.8058,3.8058,0,0,1,.1289-.52,1.3048,1.3048,0,0,1-.0668-.4325,1.86,1.86,0,0,1,.1-.6069.7359.7359,0,0,1-.05-.2578,1.63,1.63,0,0,1,.0125-.2.9724.9724,0,0,0,.0043-.2.3724.3724,0,0,0,.137-.1164.5037.5037,0,0,1,.1289-.1247.5377.5377,0,0,1,.42.1663.5847.5847,0,0,1,.17.424.6868.6868,0,0,1-.108.3659,1.8122,1.8122,0,0,1,.0331.3659,4.5746,4.5746,0,0,1-.0415.6153,3.32,3.32,0,0,0-.025.6235A.67.67,0,0,0,61.9,87.68a1.7752,1.7752,0,0,1-.0124.2827,1.9744,1.9744,0,0,1-.05.237,1.2032,1.2032,0,0,0-.0417.237q-.0081.1912-.0125.3824a1.7347,1.7347,0,0,1-.0456.3659l-.0458.1122-.0456.1039a1.3754,1.3754,0,0,0-.0209.3534,2.2668,2.2668,0,0,1-.0041.3617l-.029.1164-.0209.1248.0165.0832a12.642,12.642,0,0,0,1.5051-.2245q.7483-.1581,1.505-.2745a.4678.4678,0,0,0,.0581-.2245l-.025-.133a4.2554,4.2554,0,0,0,.1289-.5529q.0459-.2785.0792-.553t.0581-.553q.0249-.2784.0665-.5529l.05-.2826a2.1853,2.1853,0,0,1,.0665-.2745l.0374-.1.0209-.0914-.0458-.0582-.0456-.0416.0125-.0207.0206.0041a.4074.4074,0,0,0,.05-.158q.0084-.0831.0125-.1663a1.0279,1.0279,0,0,1,.0209-.1621.364.364,0,0,1,.0664-.1456l-.0333-.1081-.025-.1164v-.0165a.9334.9334,0,0,0,.0209-.1289q.0042-.0542.0041-.1289a.1791.1791,0,0,1,.0914-.158,1.6758,1.6758,0,0,1-.0581-.3077,3.2242,3.2242,0,0,1-.0165-.3243.6054.6054,0,0,1,.1039-.3617.3948.3948,0,0,1,.3449-.1455.5783.5783,0,0,1,.2371.05.4982.4982,0,0,1,.187.1414,1.69,1.69,0,0,1,.0417.3576,1.8963,1.8963,0,0,1-.0124.22,1.8352,1.8352,0,0,0-.0125.22.8184.8184,0,0,0,.0165.17q.0165.0793.0334.1623a.8206.8206,0,0,0-.1083.2577,1.9722,1.9722,0,0,0-.0455.291q-.0126.15-.0169.3035t-.0124.2785a4.93,4.93,0,0,1-.079.54q-.0543.2663-.1205.5322a.6388.6388,0,0,1,.025.1662,1.077,1.077,0,0,1-.0415.2952.7194.7194,0,0,0-.025.2869,1.1745,1.1745,0,0,0-.0749.3035q-.0168.154-.0249.32l-.0166.3244a1.16,1.16,0,0,1-.0583.3077l.0624.0457.029.0707a1.3114,1.3114,0,0,1,.4076-.0541c.1439.0029.28.0042.4072.0042.0833,0,.1663-.0013.25-.0042a1.5235,1.5235,0,0,0,.2494-.0291c.0833-.0221.1676-.0485.2537-.0791a.7588.7588,0,0,1,.2534-.0457.31.31,0,0,1,.2662.1248q.0164.0915.0249.1829C67.7635,89.8863,67.7665,89.9472,67.7665,90.0081Z"></path><path class="cls-1" d="M76.7548,83.8552q0,.0747-.0041.15c-.0028.05-.0071.0971-.0125.1414l-.0955.0332a1.0479,1.0479,0,0,0-.1123-.0082l-.0708.0124-.029.054.0084.0665c-.0446-.0055-.0915-.0109-.1414-.0165a.2754.2754,0,0,1-.1329-.05,1.378,1.378,0,0,0-.2206.0665c-.0693.0279-.1371.0582-.2035.0914s-.136.0638-.2079.0916a.7669.7669,0,0,1-.2246.05.46.46,0,0,1-.1913.1248q-.1165.0417-.2409.0748a1.7784,1.7784,0,0,0-.2331.0791.4058.4058,0,0,0-.1745.1371,1.0835,1.0835,0,0,0-.3492.0915q-.1665.0748-.3285.158t-.3284.1579a1.2676,1.2676,0,0,1-.3576.1l-.12.0831q-.0708.0333-.1457.0623c-.05.0195-.0971.04-.1411.0624l-.1083.0914h-.0165l-.05-.0165-.05-.0167-.0331.0083q-.2.0917-.3991.1913t-.416.1912q-.424.1746-.8563.3408a5.27,5.27,0,0,0-.8316.4076,6.8436,6.8436,0,0,0-.15.6776,2.5259,2.5259,0,0,1-.2078.661v.3908a1.0259,1.0259,0,0,0-.1083.3492,2.8566,2.8566,0,0,0-.0249.3659l.0043.1206.0041.1122q.2411-.0665.47-.15t.4616-.15a1.18,1.18,0,0,1,.2371-.0582,1.1829,1.1829,0,0,0,.2369-.0582,1.2644,1.2644,0,0,0,.1913-.0707l.1912-.0873a5.4144,5.4144,0,0,1,.5112-.1912,3.5286,3.5286,0,0,1,.5364-.1248,1.5179,1.5179,0,0,1,.1829-.1247.394.394,0,0,1,.2-.0582.2765.2765,0,0,1,.1246.025,1.8742,1.8742,0,0,1,.3326-.15.8352.8352,0,0,1,.3576-.05l.1-.0791.1246-.0207.0624.0042.0708.0041a.5461.5461,0,0,1,.1829-.0831c.0665-.0167.1329-.03.1994-.0416a1.5411,1.5411,0,0,0,.1954-.0457.4507.4507,0,0,0,.1706-.0957.3232.3232,0,0,1,.187.0666.5456.5456,0,0,1,.12.1413,1.0027,1.0027,0,0,1,.0832.1747,1.02,1.02,0,0,0,.0831.1746l-.05.1039-.0749.0707-.0749.0665-.0415.0914a1.9011,1.9011,0,0,0-.5613.0832q-.27.0832-.5321.1912t-.5321.2037a2.242,2.242,0,0,1-.553.1206l-.1082.0665-.1246.0416-.1082.0457-.0749.0874-.108-.025a.5532.5532,0,0,0-.2743.0748.6006.6006,0,0,1-.2995.0749l-.0915-.0083a.24.24,0,0,1-.12.108,1.0315,1.0315,0,0,1-.1664.0541,1.0926,1.0926,0,0,0-.1663.054.2356.2356,0,0,0-.12.1164l-.0583-.0083h-.05a1.19,1.19,0,0,0-.3034.0457.3882.3882,0,0,0-.2453.1706l-.1164-.0167a.4592.4592,0,0,0-.2078.0457,2.0662,2.0662,0,0,0-.1829.1039l-.1831.1164a.6326.6326,0,0,1-.1994.0832,1.8792,1.8792,0,0,0-.2993.7068,7.035,7.035,0,0,0-.1207.8315q-.0375.4325-.0706.8605a4.0962,4.0962,0,0,1-.1332.7858,1.4972,1.4972,0,0,1,.0749.2827q.0252.15.0415.3035t.0334.3118a1.6439,1.6439,0,0,0,.0583.2993.7152.7152,0,0,0,.162.3119.7993.7993,0,0,1,.17.3118l.0873.0124.0958.0043a1.1481,1.1481,0,0,0,.528-.1166,2.1959,2.1959,0,0,0,.4282-.2868q.1994-.1705.3866-.3659a2.6255,2.6255,0,0,1,.4032-.345h.1579a.8328.8328,0,0,0,.1-.1413,1.2488,1.2488,0,0,1,.0914-.1414L71.65,94.17a.4091.4091,0,0,1,.1663-.0623.2981.2981,0,0,1,.1164-.1913.3373.3373,0,0,0,.1248-.2l.0416.0083.1-.0333.1245-.1164a1.678,1.678,0,0,1,.1457-.1289c.0525-.0415.104-.0818.1539-.1206q.241-.1746.4821-.345a2.5773,2.5773,0,0,0,.4407-.3949l.0249.0083.0915-.0416c.0168-.0277.0555-.036.1164-.025a1.6943,1.6943,0,0,0,.0914-.1537.8421.8421,0,0,0,.0667-.1705l.266.0332a2.122,2.122,0,0,0,.2661.0167l.079-.0042.0708-.0208a.6819.6819,0,0,1,.108.3367,2.4663,2.4663,0,0,0,.0415.3534l-.0206-.0042-.0209-.004-.079.029-.0789.0707-.0833.0831L74.41,93.16a1.6054,1.6054,0,0,1-.191.104c-.0668.03-.13.0622-.1913.0956a1.0176,1.0176,0,0,0-.1747.1205.5079.5079,0,0,0-.133.1788q-.1665.0664-.32.1413t-.2952.158l-.0748.0831-.05.0916a.9032.9032,0,0,0-.37.2244q-.1455.15-.2952.3243l-.0084-.0084-.0706.0417c-.0084.0276-.04.0359-.0957.0249a3.6039,3.6039,0,0,1-.3327.3243q-.1746.15-.3573.2994t-.366.3035a3.45,3.45,0,0,0-.3408.3284,1.341,1.341,0,0,0-.2079.083.3277.3277,0,0,0-.15.15h-.025a.1672.1672,0,0,0-.1289.0415l-.0873.1082q-.1746.0414-.3574.0914a1.419,1.419,0,0,1-.3741.05.657.657,0,0,1-.2537-.05,1.2,1.2,0,0,1-.2328-.1289,1.7943,1.7943,0,0,1-.2079-.17q-.0958-.0916-.1788-.1746a2.9927,2.9927,0,0,0-.1289-.3451.8513.8513,0,0,1-.0789-.3451l.0125-.079.0124-.0707-.0374-.05-.054-.0416a1.1945,1.1945,0,0,1-.0209-.1871,1.3913,1.3913,0,0,0-.0209-.1954q-.0247-.1914-.0621-.3908T68.0824,93.9l.0542-.054.0456-.0707c-.0165-.0445-.0318-.0929-.0456-.1456a.6284.6284,0,0,1-.0209-.1621.28.28,0,0,1,.1248-.2494l-.0292-.0873-.0291-.0957a.9381.9381,0,0,1,.0125-.0956c.0084-.0526.0194-.1122.0334-.1787s.0262-.13.0374-.1913.0194-.1025.025-.1246q.0581-.3825.1-.7526t.1164-.7442a.6052.6052,0,0,0-.212-.1039.3328.3328,0,0,1-.1788-.1039.4659.4659,0,0,1-.0664-.15.6157.6157,0,0,1-.025-.158.4618.4618,0,0,1,.1913-.3867.8207.8207,0,0,1,.4073-.17,3.4489,3.4489,0,0,0,.1622-.5945q.0538-.3035.0874-.6111l.0664-.6237a5.7918,5.7918,0,0,1,.1-.6236h-.05a1.0709,1.0709,0,0,0-.3243.05,1.07,1.07,0,0,1-.3245.05h-.0165a.5685.5685,0,0,1-.2412-.4573.8041.8041,0,0,1,.0667-.3159.933.933,0,0,0,.241-.1331q.108-.0831.22-.17a1.9611,1.9611,0,0,1,.2287-.1539.6749.6749,0,0,1,.2578-.0831,2.4118,2.4118,0,0,1,.0833-.4823,1.8073,1.8073,0,0,0,.0664-.4823l-.0043-.1-.0206-.1a.4285.4285,0,0,0,.0789-.158.72.72,0,0,0,.0209-.1747,1.532,1.532,0,0,0-.0125-.1954q-.0126-.0954-.0293-.187a.4411.4411,0,0,0,.1164-.0707l.079-.0707.0958-.0582a.4389.4389,0,0,1,.1663-.025.55.55,0,0,1,.27.0624.6873.6873,0,0,1,.1954.1622,1.1547,1.1547,0,0,1,.1454.2245q.0622.1248.1208.2495a.1991.1991,0,0,1-.0749.1329l-.1.1082q.0165.1331.0334.2535a.9877.9877,0,0,1,0,.2537.3519.3519,0,0,0,.1579.0415.4154.4154,0,0,0,.2287-.0665.3519.3519,0,0,0,.1455-.1828h.0165l.0459.0165.054.0167h.0333a.7016.7016,0,0,1,.2-.1289c.0721-.03.1467-.06.2244-.0873s.1538-.0568.2287-.0873a.9515.9515,0,0,0,.2122-.1206l.108.025a.4149.4149,0,0,0,.1622-.0333c.0525-.0221.1039-.0457.1538-.0706a1.742,1.742,0,0,1,.162-.0707.5212.5212,0,0,1,.1872-.0333l.0416.0041.0415.0042.0665-.0416v-.0748a2.8037,2.8037,0,0,0,.4615-.1538q.1951-.0873.4365-.2038l.0166-.0083.0334.025.0081.0415.0543-.0832.0374-.1.0914.0083a.3974.3974,0,0,0,.1539-.0332,1.5367,1.5367,0,0,0,.1538-.0749q.0746-.0416.15-.0748a.3679.3679,0,0,1,.15-.0332l.108.0332.1-.0707.108-.0457.0293.0083.0291.0167.0789-.0666.0375-.0832a2.16,2.16,0,0,0,.57-.1371,2.3053,2.3053,0,0,0,.503-.2786q.0913.017.1788.0375a.7657.7657,0,0,0,.1788.0207q.05.0915.0915.1829t.1828.0832l.0125.0914Z"></path><path class="cls-1" d="M84.022,91.0391a.5866.5866,0,0,1-.054.27q-.0542.1041-.12.237l-.0418-.0083-.0915.025-.083.0415q-.2415.2662-.4946.5155a3.2444,3.2444,0,0,1-.5614.4408c-.0555.0332-.111.0652-.1663.0955s-.1136.06-.1745.0873l-.0624.0292-.054.029a.4615.4615,0,0,0-.1207.1082q-.0623.0748-.1414.1538a.866.866,0,0,1-.17.133.3341.3341,0,0,1-.2.0457l-.1164.1081-.1164.1331a2.7086,2.7086,0,0,0-.6525.3284q-.2953.2037-.6113.3949a2.1142,2.1142,0,0,1-.3823.2l-.0958.025-.1121.0249q-.2747.0665-.5529.1081a3.8037,3.8037,0,0,1-.5614.0416,2.7019,2.7019,0,0,1-.6734-.0832l-.0166-.0332-.0374-.0167-.0375-.0208v-.0457a.8169.8169,0,0,1-.32-.0914.373.373,0,0,1-.1788-.2661l-.0415.0415-.0584.0167a2.3018,2.3018,0,0,0-.2577-.3077.8567.8567,0,0,1-.2079-.3409l-.0206-.0789-.0125-.0791a.152.152,0,0,0-.15-.1164l.0166-.0831-.0041-.05-.004-.05.0249-.0832a1.6817,1.6817,0,0,1-.1166-.3783,2.2027,2.2027,0,0,1-.0332-.3867q0-.2574.025-.5113t.025-.5113a1.0159,1.0159,0,0,0,.0789-.2328.4652.4652,0,0,1,.1039-.2162l-.0333-.054-.025-.0458a1.0276,1.0276,0,0,1,.0583-.3243,1.123,1.123,0,0,0,.0581-.3575.19.19,0,0,0,.0958-.1248.23.23,0,0,1,.0874-.133v-.0416a1.0823,1.0823,0,0,1,.029-.2494q.029-.1247.0581-.2454c.0193-.08.0361-.1606.05-.2411a.9843.9843,0,0,0,.0125-.237.6273.6273,0,0,0,.0458-.0956q.0291-.07.0581-.15c.0193-.0526.0362-.104.05-.1539a.4674.4674,0,0,0,.0209-.108l-.0166-.0915-.0168-.0915a.4436.4436,0,0,1,.025-.1206c.0165-.0526.0306-.0955.0415-.1289q.0333-.1411.0624-.295t.054-.2952q.0748-.4572.1083-.9189t.0415-.9271c.0777-.0443.1592-.0858.2453-.1247a.65.65,0,0,1,.27-.0582l.0833.0083.083.025a.603.603,0,0,0,.133.266,1.1523,1.1523,0,0,1,.1663.2412,1.1727,1.1727,0,0,0-.0665.2743l-.0249.2827a2.3561,2.3561,0,0,1-.0332.2787,1.08,1.08,0,0,1-.0832.2618l.0165.0832v.0831a1.2,1.2,0,0,1-.0206.2246q-.021.108-.0459.22c-.0165.0749-.03.1483-.0415.22a.7.7,0,0,0,0,.2162l-.05.0623-.0331.0624-.0168.1581c-.0112.061-.0207.12-.0291.1786s-.0181.118-.029.1788q-.0585.25-.1289.499a1.8819,1.8819,0,0,0-.0708.5155v.05a.9445.9445,0,0,0-.1164.2869.8785.8785,0,0,0-.025.3118q-.0912.2413-.1744.474a1.4223,1.4223,0,0,0-.0833.4823l.0043.0872.0125.0874a1.2116,1.2116,0,0,0-.0833.3367c-.0112.1137-.0165.2259-.0165.3367q0,.1165.0124.27a3.1688,3.1688,0,0,0,.0416.3159q.029.1623.07.3119a1.1577,1.1577,0,0,0,.0917.2411,1.408,1.408,0,0,0,.503.4865,1.8442,1.8442,0,0,0,.661.2286,1.0119,1.0119,0,0,1,.2287-.0582,1.7556,1.7556,0,0,1,.2453,0,1.2678,1.2678,0,0,1,.27-.1q.1373-.0331.2784-.0747l.0874-.0333.079-.0332.0914-.0749.0914-.1a1.5871,1.5871,0,0,0,.3327-.1372q.1578-.0873.3077-.1788l.3076-.1829a2.2974,2.2974,0,0,1,.3327-.1579l.0789-.0707.0456-.1123.05.0167a.1574.1574,0,0,0,.1413-.0624l.1-.1289a.7784.7784,0,0,0,.2078-.0624.3055.3055,0,0,0,.15-.1454.983.983,0,0,0,.3657-.15,3.4976,3.4976,0,0,0,.3077-.237q.15-.1289.2993-.2494a1.2853,1.2853,0,0,1,.341-.1954l.0331-.0749.025-.0749a.4576.4576,0,0,0,.2247-.0789q.0828-.0622.191-.1289A.4019.4019,0,0,1,84.022,91.0391Z"></path><path class="cls-1" d="M89.8841,94.9222a.301.301,0,0,1-.1124.2038.6441.6441,0,0,0-.162.1787h-.0333a.7729.7729,0,0,0-.162.0166c-.0527.0111-.107.025-.1623.0417l-.1-.025-.0746-.0582a.4176.4176,0,0,1-.1832.0333.6645.6645,0,0,1-.3617-.1082,1.519,1.519,0,0,0-.3532-.1663.823.823,0,0,0-.12-.1788q-.0711-.079-.1414-.1537c-.0473-.05-.0929-.1026-.1373-.158a.679.679,0,0,1-.1079-.2l-.0418-.0582h-.0749a.3184.3184,0,0,0-.0206-.1579.1551.1551,0,0,0-.1289-.0832.4489.4489,0,0,0-.0334-.183.5318.5318,0,0,0-.0789-.1289l-.1-.1122a.45.45,0,0,1-.0871-.1413.9015.9015,0,0,0-.1457-.0208c-.0471-.0029-.0983-.0042-.1538-.0042a2.0649,2.0649,0,0,0-.7733.15l-.0871.0416-.0874.0415-.029.0042-.0293.0041-.108-.0208-.108-.0207-.0542.0125-.054.0207a.9812.9812,0,0,1-.2328.05,6.93,6.93,0,0,1-.7193.1,2.1463,2.1463,0,0,0-.6944.1746.1494.1494,0,0,0-.083.104.382.382,0,0,0-.0084.1372.4059.4059,0,0,0-.137.1746,2.4154,2.4154,0,0,0-.0833.2286q-.0375.12-.079.237a.59.59,0,0,1-.1164.2l.025.1081a.4485.4485,0,0,1-.083.25,1.1058,1.1058,0,0,0-.1248.2411,1.874,1.874,0,0,0-.0665.2287.7859.7859,0,0,1-.0749.2037.4183.4183,0,0,1-.1373.15.44.44,0,0,1-.2453.0582.5371.5371,0,0,1-.2577-.0582.5121.5121,0,0,1-.1745-.15.7935.7935,0,0,1-.1083-.2161,2.0972,2.0972,0,0,1-.0664-.2495q.0917-.183.1747-.316a1.0194,1.0194,0,0,0,.1245-.3409.6608.6608,0,0,0,.22-.262.8941.8941,0,0,0,.0792-.3367.3176.3176,0,0,0,.1289-.1538.6981.6981,0,0,0,.0455-.2037q-.1994-.0168-.42-.0333a1.6258,1.6258,0,0,1-.4116-.0831l.0041-.0333.004-.0333a.3849.3849,0,0,0-.05-.1953.3724.3724,0,0,1-.05-.1871v-.0665a1.3743,1.3743,0,0,0,.12-.1373,1.3158,1.3158,0,0,1,.1124-.1289.5068.5068,0,0,1,.1329-.0956.4293.4293,0,0,1,.1913-.0373,2.2469,2.2469,0,0,1,.3077.0207,2.2391,2.2391,0,0,0,.3074.0208,1.0687,1.0687,0,0,0,.2247-.025,7.9787,7.9787,0,0,0,.3242-.7608,4.9367,4.9367,0,0,0,.2162-.7857,1.1521,1.1521,0,0,0,.108-.1954,1.3107,1.3107,0,0,0,.079-.237,2.0071,2.0071,0,0,0,.0418-.2453c.0081-.08.0124-.1538.0124-.22a.6282.6282,0,0,0,.1289-.266q.0371-.1579.0622-.3285c.0168-.1136.0346-.2258.0542-.3368a.75.75,0,0,1,.1121-.291v-.0748a.5816.5816,0,0,0-.025-.2245l.05-.0749.0333-.1a4.2314,4.2314,0,0,1,.0831-.7525q.0749-.37.1248-.7443v-.0249l-.0291-.0457-.0293-.0458a1.2624,1.2624,0,0,1,.0209-.2c.0138-.0832.0234-.1523.0291-.2079a8.0368,8.0368,0,0,0,.05-.89q0-.3742-.025-.74t-.05-.74l.0667-.1.0581-.1a.6948.6948,0,0,0,.1373-.0707.251.251,0,0,1,.1454-.0374l.0415.0042.0334.0042.079.0914.058.1082.0792.0831a.19.19,0,0,0,.1414.0166q.0413.2328.2328.2412a1.6674,1.6674,0,0,0,.1039.2328.47.47,0,0,0,.17.1829l-.0084.0914a.4969.4969,0,0,0,.054.2245.8835.8835,0,0,0,.1373.2v.0167a.126.126,0,0,1-.0665.1246.498.498,0,0,1,.108.2c.0222.0777.0418.1566.0583.237a1.8329,1.8329,0,0,0,.0624.2286.31.31,0,0,0,.1289.1663v.025l-.0293.05-.029.05a1.9632,1.9632,0,0,1,.2078.5986,5.363,5.363,0,0,0,.15.6236l.079.0417.0708.0415a.13.13,0,0,0-.05.1164.17.17,0,0,1-.0417.1248.2035.2035,0,0,1,.0624.17.18.18,0,0,0,.0624.1621v.0332l-.0166.0542-.0165.054v.0332q.066.2912.1039.5821t.0789.582q.0414.2911.0915.578a3.8378,3.8378,0,0,0,.1413.5612l.0082.025-.0331.0457-.0334.0457.0293.0956.0622.0873-.0082.1a.651.651,0,0,0,.0456.2411q.0459.1166.1.2287a2.0257,2.0257,0,0,1,.0956.2369.7072.7072,0,0,1,.0333.2662.4273.4273,0,0,0,.1289.1246,1.8372,1.8372,0,0,0,.1623.0915.8342.8342,0,0,1,.1538.1.2893.2893,0,0,1,.0955.1579.2952.2952,0,0,0-.0914.1456.3507.3507,0,0,1-.0915.1538,1.5451,1.5451,0,0,0,.1371.2619q.079.12.1622.237l.1747.2328a1.4707,1.4707,0,0,1,.158.2495.1633.1633,0,0,1,.1329.05.1456.1456,0,0,0,.133.0415.2683.2683,0,0,1,.0249.15,1.0019,1.0019,0,0,1,.3327-.0582,1.62,1.62,0,0,1,.17.0084,1.5891,1.5891,0,0,0,.1622.0083.5544.5544,0,0,0,.1747-.0249l.05.1122.025.1288.0249.1331Zm-3.1347-2.3031q-.1165-.5739-.2369-1.1434T86.3,90.3242q-.05-.3077-.0749-.6154t-.0624-.6112q-.0375-.3033-.1-.6027a3.5631,3.5631,0,0,0-.1788-.59v-.0167l.0165-.0415.0166-.0582v-.0333a.3827.3827,0,0,1-.15-.212,2.7419,2.7419,0,0,1-.0708-.291,2.6047,2.6047,0,0,0-.0749-.2994.5543.5543,0,0,0-.1536-.2453q-.042.4824-.0874.96t-.0624.96a.241.241,0,0,0-.108.1664.992.992,0,0,0-.0249.2078,1.1617,1.1617,0,0,0,.0081.1373.7364.7364,0,0,0,.0334.1454,3.7352,3.7352,0,0,0-.2162.7692q-.0666.3949-.15.7858-.0084.0249-.029.1122t-.0456.1788c-.0168.061-.0306.1151-.0418.1621s-.0166.0735-.0166.079l-.004.1164.004.1164-.1248.1248a3.3889,3.3889,0,0,1-.12.611q-.0871.2953-.1788.6029l.1123.0125.1123.0042a3.8966,3.8966,0,0,0,.5362-.0375q.27-.0374.5364-.0706c.0608-.0111.1248-.0208.1912-.0292a1.5455,1.5455,0,0,1,.1913-.0125l.1-.0041.1-.0042.0873-.054.0874-.0457.1164.0249a.3111.3111,0,0,0,.1413-.0333Z"></path><path class="cls-1" d="M96.3362,87.14a2.9209,2.9209,0,0,1-.1245.8731,4.4357,4.4357,0,0,1-.32.765q-.1956.3658-.42.7234t-.4241.7566l-.07.0249-.0334.0624-.0331.0665-.0708.0292a1.6789,1.6789,0,0,1-.1913.345q-.1166.1621-.2453.3159t-.2493.3119a2.1419,2.1419,0,0,0-.2122.3408h-.083a6.9167,6.9167,0,0,1-1.01,1.1641,7.9439,7.9439,0,0,1-1.2267.923l-.05.0831-.0168.0915a.5.5,0,0,0-.1539.1288q-.0622.0792-.12.1623c-.039.0553-.079.1094-.1205.1621a.4007.4007,0,0,1-.1623.1206c-.083-.0167-.1622-.0306-.2368-.0416s-.1513-.02-.2288-.025l-.1.0042-.0915-.0042a.3154.3154,0,0,1-.1538-.0707.2649.2649,0,0,0-.1788-.054l-.0914.0083a2.613,2.613,0,0,0-.1539-.237.4381.4381,0,0,1-.0873-.2618.6483.6483,0,0,1,.0292-.2.628.628,0,0,0,.0291-.1913,1.1194,1.1194,0,0,0-.0708-.3908,1.12,1.12,0,0,1-.0706-.3907l.0166-.1289.0168-.1289a.1739.1739,0,0,0-.0667-.1331l.0333-.0831.025-.0915a.4274.4274,0,0,0,.0084-.1455,1.38,1.38,0,0,1-.0084-.1455q0-.1746.0165-.3492a1.4535,1.4535,0,0,1,.0749-.3409l-.0249-.0914-.0331-.0832a1.6415,1.6415,0,0,0,.0746-.3908q.0168-.2162.0168-.4324V89.75a3.108,3.108,0,0,1,.025-.4074c.0109-.0552.0234-.1094.0371-.1621a.5967.5967,0,0,0,.0209-.1538l-.0249-.1205-.0665-.1041.0665-.0706.0084-.0956a.9284.9284,0,0,0-.0415-.2577,1.6988,1.6988,0,0,0,.0415-.2869q.0079-.1455.0081-.2868a7.6591,7.6591,0,0,0-.0621-.9813q-.0627-.4821-.0792-.9728h-.0247l-.0917.0249-.0665.0542-.0749.05-.1.0124a1.0444,1.0444,0,0,1-.2287.2,2.2984,2.2984,0,0,1-.27.15q-.1413.0667-.2911.1206t-.2827.104a.4711.4711,0,0,1-.1994-.1372q-.083-.0955-.158-.1954l-.0084-.0666V86.1a.5149.5149,0,0,1,.108-.3534c.0724-.08.15-.1759.2331-.2868h.0415l.0706.0165.0708.0167h.0249a2.22,2.22,0,0,1,.5112-.32,3.0474,3.0474,0,0,1,.5614-.187,1.0283,1.0283,0,0,1,.2537-.1913.6541.6541,0,0,1,.3033-.0665l.0958.0042.0955.0125q.3408-.1579.6444-.27a2.018,2.018,0,0,1,.7025-.1123l.0708-.025.0374-.054.0331-.0539.0584-.025.0084.05.0415.0333.0624-.0209.0706-.0208.0583.0582c.0609-.0387.1189-.0747.1745-.1081a.6675.6675,0,0,1,.1828-.0748c.0833.0166.1676.0306.2537.0415a2.0046,2.0046,0,0,0,.2618.0167,1.6077,1.6077,0,0,0,.2-.0125.3138.3138,0,0,0,.1745-.0789l.0334.0332a.373.373,0,0,0,.1579.0873.8616.8616,0,0,0,.1747.0249c.0609.003.1218.007.1829.0125A.3541.3541,0,0,1,94,84.3041l.108.0541.1083.0623a.632.632,0,0,0,.137.025.3213.3213,0,0,1,.1289.0332l.0458.0541.0456.0623a.3813.3813,0,0,0,.2.0707.4358.4358,0,0,1,.2162.0791.2924.2924,0,0,0,.1829.2411c.1.0388.1967.0776.2912.1164l.0331.1164a1.1509,1.1509,0,0,1,.1788.1663,2.1922,2.1922,0,0,1,.15.1953q.07.1041.1371.2038a.9824.9824,0,0,0,.1579.1829.168.168,0,0,0,.0209.1164.1625.1625,0,0,1,.0124.1248.95.95,0,0,1,.1829.2411.2947.2947,0,0,0-.05.1663.5768.5768,0,0,0,.025.1663.57.57,0,0,1,.0249.1663Zm-.7733-.1829a1.2565,1.2565,0,0,0-.0914-.47q-.0917-.2286-.1579-.4531a.1289.1289,0,0,1-.1373-.0791.3088.3088,0,0,0-.1039-.1372.2667.2667,0,0,1-.2-.241q-.1665-.0666-.341-.15a.7947.7947,0,0,1-.2909-.2328q-.3-.0913-.6029-.1871a2.0513,2.0513,0,0,0-.6194-.0956l-.1039.0042-.0874.0042a.4483.4483,0,0,0-.1413.0249.4494.4494,0,0,1-.1414.0249.2692.2692,0,0,1-.15-.05,1.5311,1.5311,0,0,1-.3617.1413q-.1951.05-.3947.0873t-.391.0914a1.0806,1.0806,0,0,0-.3408.1623l-.0955-.025-.0874-.0084a.1813.1813,0,0,0-.1164.0334l-.0293.0415-.0081.054-.0209.0458-.0665.0083-.0041.0748-.0043.0748a2.0245,2.0245,0,0,0,.0458.4283,2.0306,2.0306,0,0,1,.0456.4282,1.5357,1.5357,0,0,1-.0081.1538.72.72,0,0,1-.0334.1539.6123.6123,0,0,1,.0459.2161c.0028.0777.004.1552.004.2328s.0028.1538.0085.2287a.5611.5611,0,0,0,.058.212,1.9233,1.9233,0,0,0-.0331.2495q-.0084.1247-.0084.2494a5.6258,5.6258,0,0,0,.029.5737,5.6027,5.6027,0,0,1,.0293.5737c0,.05-.0015.1027-.0043.1581s-.0069.1109-.0125.1663a.9036.9036,0,0,1-.058.2078.5548.5548,0,0,0-.0416.2161,1.4525,1.4525,0,0,0,.0082.1539,1.5344,1.5344,0,0,1,.0084.1621l-.0041.0624-.0043.0624q-.0417.2912-.0665.59t-.025.59q0,.2744.0166.5447t.05.5445a.2645.2645,0,0,0-.0331.1331.5441.5441,0,0,0,.0581.237.3033.3033,0,0,0,.1747.1621,2.1715,2.1715,0,0,0,.4946-.2619q.2286-.1621.4616-.3285.058-.0414.1747-.1122a1.7407,1.7407,0,0,0,.1579-.1039l.0706-.0707.0708-.079.3657-.3908q.3161-.3243.6279-.6568a6.7964,6.7964,0,0,0,.5779-.7068q.0749-.1164.15-.2286t.1414-.237l.05-.0957.0583-.0956.0622-.0665.0624-.0666q.0664-.0747.1289-.1537c.0417-.0528.0845-.1094.1288-.1706q.183-.2658.3411-.5362t.3492-.5363a1.3654,1.3654,0,0,1,.0665-.3119q.05-.1454.1-.2827a2.3152,2.3152,0,0,0,.083-.2868,1.0865,1.0865,0,0,0,.0169-.3327l.0705-.0831a.13.13,0,0,0,.029-.1Z"></path><path class="cls-1" d="M105.4493,83.8552q0,.0747-.0041.15c-.0028.05-.0071.0971-.0125.1414l-.0955.0332a1.05,1.05,0,0,0-.1123-.0082l-.0708.0124-.029.054.0084.0665c-.0446-.0055-.0915-.0109-.1414-.0165a.2762.2762,0,0,1-.133-.05,1.3768,1.3768,0,0,0-.2205.0665c-.0693.0279-.1371.0582-.2035.0914s-.1361.0638-.2079.0916a.7669.7669,0,0,1-.2246.05.4605.4605,0,0,1-.1913.1248q-.1166.0417-.241.0748a1.7819,1.7819,0,0,0-.233.0791.4058.4058,0,0,0-.1745.1371,1.0835,1.0835,0,0,0-.3492.0915q-.1665.0748-.3286.158t-.3283.1579a1.2676,1.2676,0,0,1-.3576.1l-.12.0831q-.0707.0333-.1456.0623c-.05.0195-.0971.04-.1411.0624l-.1083.0914h-.0166l-.05-.0165-.05-.0167-.0331.0083q-.2.0917-.3991.1913t-.416.1912q-.4241.1746-.8563.3408a5.27,5.27,0,0,0-.8316.4076,6.8436,6.8436,0,0,0-.15.6776,2.53,2.53,0,0,1-.2078.661v.3908a1.0259,1.0259,0,0,0-.1083.3492,2.8573,2.8573,0,0,0-.025.3659l.0044.1206.0041.1122q.2411-.0665.47-.15t.4616-.15a1.1781,1.1781,0,0,1,.2371-.0582,1.1829,1.1829,0,0,0,.2369-.0582,1.26,1.26,0,0,0,.1912-.0707l.1913-.0873a5.3938,5.3938,0,0,1,.5112-.1912,3.5231,3.5231,0,0,1,.5364-.1248,1.5179,1.5179,0,0,1,.1829-.1247.394.394,0,0,1,.2-.0582.2758.2758,0,0,1,.1245.025,1.8786,1.8786,0,0,1,.3327-.15.835.835,0,0,1,.3576-.05l.1-.0791.1246-.0207.0624.0042.0708.0041a.5461.5461,0,0,1,.1829-.0831c.0665-.0167.1329-.03.1994-.0416a1.5411,1.5411,0,0,0,.1954-.0457.4514.4514,0,0,0,.1706-.0957.3237.3237,0,0,1,.187.0666.5434.5434,0,0,1,.12.1413.9959.9959,0,0,1,.0833.1747,1.02,1.02,0,0,0,.0831.1746l-.05.1039-.0749.0707-.0749.0665-.0415.0914a1.9022,1.9022,0,0,0-.5614.0832q-.27.0832-.532.1912t-.5321.2037a2.242,2.242,0,0,1-.553.1206l-.1082.0665-.1246.0416-.1082.0457-.0749.0874-.108-.025a.5532.5532,0,0,0-.2743.0748.6006.6006,0,0,1-.2995.0749l-.0915-.0083a.24.24,0,0,1-.12.108,1.03,1.03,0,0,1-.1663.0541A1.089,1.089,0,0,0,99.7,90a.2356.2356,0,0,0-.1205.1164l-.0583-.0083h-.05a1.19,1.19,0,0,0-.3034.0457.3882.3882,0,0,0-.2453.1706l-.1164-.0167a.4592.4592,0,0,0-.2078.0457,2.0662,2.0662,0,0,0-.1829.1039l-.1831.1164a.6326.6326,0,0,1-.1994.0832,1.8776,1.8776,0,0,0-.2993.7068,7.0556,7.0556,0,0,0-.1208.8315q-.0374.4325-.07.8605a4.0962,4.0962,0,0,1-.1332.7858,1.4972,1.4972,0,0,1,.0749.2827q.0252.15.0415.3035c.0112.1025.0221.2064.0334.3118a1.6439,1.6439,0,0,0,.0583.2993.7152.7152,0,0,0,.162.3119.7993.7993,0,0,1,.17.3118l.0873.0124.0958.0043a1.1481,1.1481,0,0,0,.528-.1166,2.1989,2.1989,0,0,0,.4282-.2868q.1994-.1705.3866-.3659a2.6255,2.6255,0,0,1,.4032-.345h.1579a.8328.8328,0,0,0,.1-.1413,1.2488,1.2488,0,0,1,.0914-.1414l.1164-.1123a.4085.4085,0,0,1,.1663-.0623.2981.2981,0,0,1,.1164-.1913.3373.3373,0,0,0,.1248-.2l.0415.0083.1-.0333.1245-.1164a1.678,1.678,0,0,1,.1457-.1289q.0787-.0622.1539-.1206.2411-.1746.4821-.345a2.5811,2.5811,0,0,0,.4407-.3949l.0249.0083.0915-.0416c.0168-.0277.0555-.036.1164-.025a1.7177,1.7177,0,0,0,.0914-.1537.8421.8421,0,0,0,.0667-.1705l.2659.0332a2.1247,2.1247,0,0,0,.2662.0167l.079-.0042.0708-.0208a.6819.6819,0,0,1,.108.3367,2.4663,2.4663,0,0,0,.0415.3534l-.0206-.0042-.0209-.004-.079.029-.0789.0707-.0833.0831-.0749.0666a1.6054,1.6054,0,0,1-.191.104q-.1.0455-.1913.0956a1.0184,1.0184,0,0,0-.1748.1205.5089.5089,0,0,0-.1329.1788q-.1667.0664-.32.1413t-.2952.158l-.0749.0831-.05.0916a.9032.9032,0,0,0-.37.2244q-.1457.15-.2952.3243l-.0084-.0084-.0706.0417c-.0084.0276-.04.0359-.0957.0249a3.6039,3.6039,0,0,1-.3327.3243q-.1746.15-.3573.2994t-.366.3035a3.45,3.45,0,0,0-.3408.3284,1.341,1.341,0,0,0-.2079.083.3272.3272,0,0,0-.15.15h-.025a.1672.1672,0,0,0-.1289.0415l-.0874.1082q-.1746.0414-.3573.0914a1.4192,1.4192,0,0,1-.3742.05.6565.6565,0,0,1-.2536-.05,1.2,1.2,0,0,1-.2328-.1289,1.7943,1.7943,0,0,1-.2079-.17q-.0958-.0916-.1788-.1746a3.0113,3.0113,0,0,0-.1289-.3451.8513.8513,0,0,1-.0789-.3451l.0125-.079.0124-.0707-.0374-.05-.054-.0416a1.1945,1.1945,0,0,1-.0209-.1871,1.3913,1.3913,0,0,0-.0209-.1954q-.0247-.1914-.0621-.3908T96.7769,93.9l.0542-.054.0456-.0707c-.0165-.0445-.0318-.0929-.0456-.1456a.6284.6284,0,0,1-.0209-.1621.2793.2793,0,0,1,.1248-.2494l-.0293-.0873-.029-.0957a.9381.9381,0,0,1,.0125-.0956c.0084-.0526.0193-.1122.0334-.1787s.0262-.13.0374-.1913.0194-.1025.025-.1246q.0581-.3825.1-.7526t.1164-.7442a.6038.6038,0,0,0-.2119-.1039A.3324.3324,0,0,1,96.81,90.74a.4659.4659,0,0,1-.0664-.15.6157.6157,0,0,1-.025-.158.4618.4618,0,0,1,.1913-.3867.8208.8208,0,0,1,.4072-.17,3.44,3.44,0,0,0,.1623-.5945q.0538-.3035.0874-.6111l.0664-.6237a5.7918,5.7918,0,0,1,.1-.6236h-.05a1.0709,1.0709,0,0,0-.3243.05,1.07,1.07,0,0,1-.3245.05h-.0165a.5683.5683,0,0,1-.2412-.4573.8041.8041,0,0,1,.0667-.3159.9308.9308,0,0,0,.2409-.1331q.1081-.0831.22-.17a1.9527,1.9527,0,0,1,.2287-.1539.6749.6749,0,0,1,.2578-.0831,2.4187,2.4187,0,0,1,.0832-.4823,1.8034,1.8034,0,0,0,.0665-.4823l-.0043-.1-.0206-.1a.4285.4285,0,0,0,.0789-.158.72.72,0,0,0,.0209-.1747,1.532,1.532,0,0,0-.0125-.1954q-.0126-.0954-.0293-.187a.4411.4411,0,0,0,.1164-.0707l.079-.0707.0958-.0582a.4389.4389,0,0,1,.1663-.025.55.55,0,0,1,.27.0624.6873.6873,0,0,1,.1954.1622,1.1593,1.1593,0,0,1,.1454.2245q.0623.1248.1207.2495a.1987.1987,0,0,1-.0748.1329l-.1.1082q.0165.1331.0334.2535a.9877.9877,0,0,1,0,.2537.3519.3519,0,0,0,.1579.0415.4154.4154,0,0,0,.2287-.0665.3519.3519,0,0,0,.1455-.1828h.0165l.0459.0165.054.0167h.0333a.7016.7016,0,0,1,.2-.1289q.108-.0456.2244-.0873t.2287-.0873a.9486.9486,0,0,0,.2121-.1206l.108.025a.415.415,0,0,0,.1623-.0333c.0525-.0221.1039-.0457.1538-.0706a1.73,1.73,0,0,1,.162-.0707.5208.5208,0,0,1,.1872-.0333l.0415.0041.0416.0042.0664-.0416v-.0748a2.8019,2.8019,0,0,0,.4616-.1538q.1951-.0873.4365-.2038l.0166-.0083.0334.025.0081.0415.0543-.0832.0374-.1.0914.0083a.3974.3974,0,0,0,.1539-.0332,1.5473,1.5473,0,0,0,.1538-.0749q.0746-.0416.15-.0748a.3679.3679,0,0,1,.15-.0332l.108.0332.1-.0707.108-.0457.0293.0083.0291.0167.0789-.0666.0375-.0832a2.1607,2.1607,0,0,0,.5695-.1371,2.3053,2.3053,0,0,0,.503-.2786q.0914.017.1788.0375a.7657.7657,0,0,0,.1788.0207q.05.0915.0915.1829t.1828.0832l.0125.0914Z"></path><path class="cls-1" d="M114.4628,93.2842a.406.406,0,0,1-.1164.262.3584.3584,0,0,1-.2578.0955.5014.5014,0,0,1-.1582-.0248,1.1384,1.1384,0,0,1-.3741.1911q-.2163.0664-.4073.1331a4.1517,4.1517,0,0,1-.4574-.0416,2.148,2.148,0,0,0-.4656-.0166.4413.4413,0,0,0-.1745-.0749,1.34,1.34,0,0,0-.1872-.0207.7853.7853,0,0,1-.1829-.0292.3749.3749,0,0,1-.17-.1164h-.4159a.4437.4437,0,0,1-.17-.054q-.1123-.0543-.2494-.1122t-.2911-.1081a.9329.9329,0,0,0-.2868-.05h-.05a.6224.6224,0,0,0-.2119-.1122q-.1208-.0375-.2453-.0666t-.2412-.0623a.6691.6691,0,0,1-.2-.0916c-.0553-.0388-.1192-.0789-.191-.1205a.3883.3883,0,0,0-.2247-.0541,2.3934,2.3934,0,0,0-.3283-.1579q-.1709-.0664-.3451-.1248l-.3408-.1247a2.9734,2.9734,0,0,1-.3327-.1579h-.0583l-.0581-.0084-.0583.0332a.6458.6458,0,0,0-.1289-.1.9029.9029,0,0,1-.1373-.1l-.0621.0124-.0708.0042a.6328.6328,0,0,1-.1455-.0166,1.1288,1.1288,0,0,1-.1372-.0416,1.2817,1.2817,0,0,0-.1.3741q-.0248.2081-.0372.4283t-.0293.4406a1.7807,1.7807,0,0,1-.0746.4034l.0166.1329v.1414a.5061.5061,0,0,0,.0415.2245c-.0112.05-.0209.0969-.0291.1414l-.029.133q.0081.0914.0122.17c.0028.0526.0044.1094.0044.17v.1414a.6953.6953,0,0,1-.0166.15q-.0832.05-.1663.0955a1.1417,1.1417,0,0,0-.1663.1123.1247.1247,0,1,0-.2453-.0125.0747.0747,0,0,1-.079.0707q-.1166-.0917-.1913-.15a1.03,1.03,0,0,1-.1663-.1746l-.0084-.0417.0166-.0747.0168-.0666a.5536.5536,0,0,0-.025-.1746q-.0168-.1082-.0249-.2121c-.0056-.0694-.0084-.1371-.0084-.2036a1.7578,1.7578,0,0,1,.0208-.2745,1.2006,1.2006,0,0,1,.079-.2744,2.3554,2.3554,0,0,0,.1289-.5071q.0373-.2663.054-.5364t.0209-.5446q.0037-.2744.029-.5238a.683.683,0,0,0-.1373-.212.3475.3475,0,0,1-.0789-.2537.3089.3089,0,0,1,.1-.2453.883.883,0,0,0,.1747-.212l.0247-.0665.1-.873q.0084-.0915.029-.2t.0293-.1995q.0165-.1913.0166-.3742t.0165-.3659q.0417-.4072.079-.8065t.0374-.7982q0-.1912-.0125-.3826a2.5559,2.5559,0,0,0-.054-.3824q-.1413.0416-.3117.0873a.6681.6681,0,0,0-.2868.1537h-.0665a.9837.9837,0,0,0-.4034.0832q-.1869.0832-.3783.158a.548.548,0,0,1-.1663.054,1.5648,1.5648,0,0,0-.1747.0375l-.0915.05-.0914.0582-.1414.0332-.05.0749-.0415.0748a.1439.1439,0,0,1-.1164.0374c-.05-.0027-.0886-.0042-.1164-.0042h-.0331a3.5149,3.5149,0,0,1-.4035.2537,1.3209,1.3209,0,0,1-.4615.1372l-.1829.1164a.3782.3782,0,0,1-.2078.0582.2982.2982,0,0,1-.15-.0333.8364.8364,0,0,1-.1042-.2245.503.503,0,0,0-.1289-.2161.2031.2031,0,0,0,.0543-.1123,1.2826,1.2826,0,0,1,.029-.1289q.2495-.108.503-.2079a3.1581,3.1581,0,0,0,.4865-.241l.0749.0082a.4216.4216,0,0,0,.15-.0249l.133-.0582.1332-.0582a.3557.3557,0,0,1,.1579-.0167,3.2179,3.2179,0,0,1,.5986-.2578,2.65,2.65,0,0,0,.5988-.2743l.07.0166.0624.0167.0415-.0083a.2774.2774,0,0,1,.1333-.0957,1.7533,1.7533,0,0,1,.17-.05.8291.8291,0,0,0,.1663-.0582.1874.1874,0,0,0,.1039-.1206.1965.1965,0,0,0,.1248.0333.5948.5948,0,0,0,.2618-.0582.594.594,0,0,1,.2619-.0582l.0624.0124.0624.0125.0705-.0415.0459-.0749q.507-.0914,1.01-.1663a6.9277,6.9277,0,0,1,1.0186-.0748.3021.3021,0,0,1,.3326,0q.1415-.0165.2828-.0249t.2827-.0083a5.5217,5.5217,0,0,1,.6653.0415,5.2229,5.2229,0,0,1,.6775.1289,3.6422,3.6422,0,0,1,.6444.2328,3.3213,3.3213,0,0,1,.5738.3451.89.89,0,0,0,.0665.15.314.314,0,0,0,.108.1164l-.0041.0249-.004.025a.3139.3139,0,0,0,.054.1746.3592.3592,0,0,1,.054.1995.7545.7545,0,0,1-.0375.2328.6122.6122,0,0,0-.029.2328q-.0917.1332-.1539.2411a.6823.6823,0,0,0-.0789.2745,2.0318,2.0318,0,0,0-.2662.3284q-.1166.179-.2369.3492a2.0794,2.0794,0,0,1-.27.3119,1.1185,1.1185,0,0,1-.3576.2244.464.464,0,0,1-.0665.183h-.1747l-.083.1-.1164.0666-.0956.0832a.2318.2318,0,0,0-.0374.1413l-.0418-.0084a.35.35,0,0,0-.1953.0832q-.1124.0832-.1788.1331c-.0943.0664-.19.1276-.2868.1828a.8088.8088,0,0,0-.2537.2328,4.578,4.578,0,0,0-.6319.3285,2.7475,2.7475,0,0,1-.6485.2952.9487.9487,0,0,1-.3118.22q-.1788.0791-.3451.1705v.025l.05.1289.1164.108a.3984.3984,0,0,0,.1455.0624.2828.2828,0,0,0,.1372,0,1.3481,1.3481,0,0,0,.3826.241q.2159.0918.4491.1664t.4571.158a2.0758,2.0758,0,0,1,.4157.2079h.2a1.2612,1.2612,0,0,0,.4531.2494q.2617.0831.5031.15a.6339.6339,0,0,0,.2537.1371,1.0292,1.0292,0,0,0,.2952.0458h.05l.0584-.0083v.0167l.0249.054.054.0166.0583.0166.0456.0374h.0833a.806.806,0,0,1,.3324.0707.8068.8068,0,0,0,.3327.0707.3214.3214,0,0,0,.1164-.0167l.0748.0666.0665.0832.1083-.0125.1-.0042a1.3377,1.3377,0,0,1,.341.0415,1.6951,1.6951,0,0,1,.3242.1248,4.2886,4.2886,0,0,1,.524-.1913,1.956,1.956,0,0,1,.5486-.0747v.0165a.35.35,0,0,0,.054.1871A1.5649,1.5649,0,0,1,114.4628,93.2842Zm-3.1846-6.6353a.29.29,0,0,0-.0374-.1579l-.0958-.1039-.12-.0874-.1123-.1081q-.2163-.0664-.4241-.15a3.7991,3.7991,0,0,0-.4241-.1414q-.1081-.025-.216-.0457a1.1489,1.1489,0,0,0-.2162-.0208h-.1829l-.1039-.0209-.1039-.0207q-.1166-.0165-.2287-.025c-.0749-.0053-.1511-.0083-.2288-.0083q-.2162,0-.4322.0167l-.4325.0333c-.0611.0056-.1248.0082-.1913.0082a.932.932,0,0,0-.1829.0167.7736.7736,0,0,0-.1164.0375q-.0748.0291-.1579.0582t-.1622.0622a1.233,1.233,0,0,1-.1373.05l.0084.1164v.1081q0,.1247-.0084.25a1.9555,1.9555,0,0,1-.0331.2493l-.025.1-.0249.1a.7617.7617,0,0,0-.0166.1663v.158q-.0168.1913-.025.3742t-.0249.3742q-.05.5486-.1039,1.0892t-.0708,1.0893a2.4266,2.4266,0,0,0,.5239-.1746q.2495-.1164.4905-.2537t.4822-.27a3.2137,3.2137,0,0,1,.5074-.2244.5558.5558,0,0,1,.162-.15.5589.5589,0,0,0,.1622-.15.1825.1825,0,0,0,.1248-.0374l.108-.054q.3993-.3492.8148-.6569a10.04,10.04,0,0,0,.7983-.6569.7608.7608,0,0,1,.1123-.2287c.0524-.0748.1039-.1509.1538-.2286a2.4527,2.4527,0,0,0,.133-.2328A.5514.5514,0,0,0,111.2782,86.6489Z"></path><path class="cls-1" d="M114.2465,93.3591a.3648.3648,0,0,1-.0914.2411,2.2439,2.2439,0,0,0-.1579.2078.68.68,0,0,1-.22.0707,1.0025,1.0025,0,0,0-.22.0541l-.0914.0582-.1332-.0541-.133-.0623a.8444.8444,0,0,0-.2368-.0416.294.294,0,0,1-.2122-.0832.9291.9291,0,0,1-.1954-.3077,2.3272,2.3272,0,0,1-.1248-.4074,3.8916,3.8916,0,0,1-.0665-.4281q-.021-.2121-.0208-.37a4.3009,4.3009,0,0,1,.0333-.5321,3.8173,3.8173,0,0,1,.1-.5155v-.0416l.004-.0707.0041-.0707-.0041-.05-.029-.0416a2.8579,2.8579,0,0,0,.1579-.5655q.05-.291.079-.5862t.0665-.59a4.43,4.43,0,0,1,.1123-.5779l-.0125-.1081-.0041-.108a1.324,1.324,0,0,1,.0331-.2952,1.7815,1.7815,0,0,0,.0418-.3035v-.1039l-.0084-.1123a6.7212,6.7212,0,0,1,.0374-.7151,6.6151,6.6151,0,0,0,.0375-.7068,2.3136,2.3136,0,0,0-.029-.37,2.2128,2.2128,0,0,1-.0293-.3617,1.533,1.533,0,0,1,.0084-.1621.3339.3339,0,0,1,.05-.1455.7473.7473,0,0,1,.4322-.1247.5125.5125,0,0,1,.3161.1l-.0084.05.0084.0749.0082.0748V85.31l-.0082.0334a.6586.6586,0,0,1,.079.2119,1.2684,1.2684,0,0,1,.0209.2287c0,.0721-.0031.1428-.0084.212s-.0085.14-.0085.2121q0,.15.0044.2993c.0025.1.0041.2.0041.2994q0,.399-.0375.7857t-.054.7858a4.0456,4.0456,0,0,1-.0874.6651,4.7478,4.7478,0,0,0-.0955.6569l-.0043.1289q.0042.0622.0043.1372a1.0106,1.0106,0,0,1-.0748.3783,1.0519,1.0519,0,0,0-.0749.395.4236.4236,0,0,0,.0333.1746,2.107,2.107,0,0,0-.0873.3159q-.0375.183-.0665.3784t-.0459.3824c-.0112.1248-.0165.2343-.0165.3285a1.684,1.684,0,0,0,.05.4033,1.086,1.086,0,0,0,.1663.37.6959.6959,0,0,0,.2.025c.0777,0,.1551.0028.2328.0083a.8709.8709,0,0,1,.2162.0416.2527.2527,0,0,1,.15.133l.0081.0333Zm1.2389-12.2313-.07.1081-.0665.0874-.0418.1039a.52.52,0,0,0-.0041.15.9828.9828,0,0,1-.137.1828c-.053.0556-.1054.11-.1582.1623a1.7553,1.7553,0,0,0-.15.17.7849.7849,0,0,0-.1123.2.4688.4688,0,0,0-.2787.2038c-.058.097-.1151.1954-.17.2951a.6244.6244,0,0,0-.3617.3159,1.0047,1.0047,0,0,0-.12.4658.4493.4493,0,0,1-.2662.1413,1.926,1.926,0,0,1-.2992.025q-.1,0-.1954-.0042t-.1872-.0125a.5052.5052,0,0,1-.0706-.158,1.6613,1.6613,0,0,1-.0333-.17c-.0084-.0582-.0166-.115-.025-.17a.4658.4658,0,0,0-.054-.1581q.4737-.4489.9106-.9229t.8522-.9812l-.0084-.0748.0209-.1039.0374-.0874.0291-.0914a.3617.3617,0,0,0,.004-.1247.81.81,0,0,1,.3161-.0666.5965.5965,0,0,1,.4073.1456A.771.771,0,0,1,115.4854,81.1278Z"></path><path class="cls-1" d="M121.3808,94.9222a.3013.3013,0,0,1-.1123.2038.6411.6411,0,0,0-.162.1787h-.0334a.7743.7743,0,0,0-.162.0166c-.0527.0111-.107.025-.1622.0417l-.1-.025-.0746-.0582a.4171.4171,0,0,1-.1831.0333.6645.6645,0,0,1-.3617-.1082,1.5178,1.5178,0,0,0-.3533-.1663.8194.8194,0,0,0-.12-.1788q-.071-.079-.1413-.1537c-.0474-.05-.093-.1026-.1373-.158a.6769.6769,0,0,1-.108-.2l-.0418-.0582h-.0749a.3173.3173,0,0,0-.0206-.1579.1551.1551,0,0,0-.1289-.0832.4506.4506,0,0,0-.0333-.183.5321.5321,0,0,0-.079-.1289l-.1-.1122a.45.45,0,0,1-.0871-.1413.9031.9031,0,0,0-.1457-.0208c-.0472-.0029-.0984-.0042-.1539-.0042a2.0653,2.0653,0,0,0-.7733.15l-.0871.0416-.0873.0415-.0291.0042-.0293.0041-.108-.0208-.1079-.0207-.0543.0125-.054.0207a.9792.9792,0,0,1-.2328.05,6.9226,6.9226,0,0,1-.7193.1,2.1457,2.1457,0,0,0-.6943.1746.1491.1491,0,0,0-.083.104.382.382,0,0,0-.0084.1372.4061.4061,0,0,0-.1371.1746q-.0458.1078-.0833.2286t-.0789.237a.5936.5936,0,0,1-.1164.2l.0249.1081a.4478.4478,0,0,1-.083.25,1.1146,1.1146,0,0,0-.1248.2411,1.892,1.892,0,0,0-.0665.2287.7859.7859,0,0,1-.0749.2037.4171.4171,0,0,1-.1372.15.44.44,0,0,1-.2453.0582.5375.5375,0,0,1-.2578-.0582.514.514,0,0,1-.1745-.15.7933.7933,0,0,1-.1082-.2161,2.1171,2.1171,0,0,1-.0665-.2495q.0917-.183.1747-.316a1.0194,1.0194,0,0,0,.1246-.3409.6613.6613,0,0,0,.22-.262.8922.8922,0,0,0,.0792-.3367.3171.3171,0,0,0,.1289-.1538.6981.6981,0,0,0,.0456-.2037q-.2-.0168-.42-.0333a1.6267,1.6267,0,0,1-.4116-.0831l.0041-.0333.0041-.0333a.3859.3859,0,0,0-.05-.1953.3725.3725,0,0,1-.05-.1871v-.0665a1.3755,1.3755,0,0,0,.12-.1373,1.3151,1.3151,0,0,1,.1123-.1289.5057.5057,0,0,1,.133-.0956.4292.4292,0,0,1,.1912-.0373,2.2458,2.2458,0,0,1,.3077.0207,2.24,2.24,0,0,0,.3074.0208,1.0687,1.0687,0,0,0,.2247-.025,7.9787,7.9787,0,0,0,.3242-.7608,4.9266,4.9266,0,0,0,.2163-.7857,1.1591,1.1591,0,0,0,.108-.1954,1.31,1.31,0,0,0,.0789-.237,1.9881,1.9881,0,0,0,.0418-.2453,2.1863,2.1863,0,0,0,.0125-.22.6293.6293,0,0,0,.1289-.266q.037-.1579.0621-.3285t.0543-.3368a.7485.7485,0,0,1,.112-.291v-.0748a.5836.5836,0,0,0-.0249-.2245l.05-.0749.0334-.1a4.2313,4.2313,0,0,1,.083-.7525q.0748-.37.1248-.7443v-.0249l-.029-.0457-.0293-.0458a1.2624,1.2624,0,0,1,.0209-.2c.0137-.0832.0234-.1523.029-.2079a8.0126,8.0126,0,0,0,.05-.89q0-.3742-.0249-.74t-.05-.74l.0668-.1.058-.1a.692.692,0,0,0,.1373-.0707.2511.2511,0,0,1,.1455-.0374l.0415.0042.0333.0042.079.0914.0581.1082.0792.0831a.19.19,0,0,0,.1414.0166q.0413.2328.2328.2412a1.6558,1.6558,0,0,0,.1039.2328.47.47,0,0,0,.17.1829l-.0084.0914a.4956.4956,0,0,0,.054.2245.88.88,0,0,0,.1372.2v.0167a.126.126,0,0,1-.0664.1246.4992.4992,0,0,1,.108.2c.0221.0777.0417.1566.0583.237a1.799,1.799,0,0,0,.0624.2286.31.31,0,0,0,.1289.1663v.025l-.0293.05-.0291.05a1.9607,1.9607,0,0,1,.2079.5986,5.3226,5.3226,0,0,0,.15.6236l.0789.0417.0708.0415a.13.13,0,0,0-.05.1164.1693.1693,0,0,1-.0418.1248.2035.2035,0,0,1,.0624.17.18.18,0,0,0,.0624.1621v.0332l-.0165.0542-.0166.054v.0332q.0662.2912.1039.5821t.079.582q.0413.2911.0914.578a3.8381,3.8381,0,0,0,.1414.5612l.0081.025-.0331.0457-.0333.0457.0293.0956.0621.0873-.0081.1a.6529.6529,0,0,0,.0455.2411c.0306.0777.0637.1538.1.2287a2.043,2.043,0,0,1,.0955.2369.7072.7072,0,0,1,.0334.2662.4251.4251,0,0,0,.1289.1246,1.85,1.85,0,0,0,.1622.0915.8275.8275,0,0,1,.1538.1.29.29,0,0,1,.0956.1579.296.296,0,0,0-.0915.1456.3505.3505,0,0,1-.0914.1538,1.552,1.552,0,0,0,.137.2619q.079.12.1623.237l.1747.2328a1.47,1.47,0,0,1,.1579.2495.1634.1634,0,0,1,.133.05.1453.1453,0,0,0,.1329.0415.2674.2674,0,0,1,.025.15,1.0013,1.0013,0,0,1,.3326-.0582,1.617,1.617,0,0,1,.17.0084,1.59,1.59,0,0,0,.1623.0083.5548.5548,0,0,0,.1747-.0249l.05.1122.0249.1288.025.1331Zm-3.1346-2.3031q-.1166-.5739-.2369-1.1434t-.2122-1.1515q-.05-.3077-.0749-.6154t-.0624-.6112q-.0374-.3033-.1-.6027a3.5441,3.5441,0,0,0-.1788-.59v-.0167l.0166-.0415.0165-.0582v-.0333a.3832.3832,0,0,1-.15-.212,2.7916,2.7916,0,0,1-.0708-.291,2.5842,2.5842,0,0,0-.0749-.2994.5541.5541,0,0,0-.1535-.2453q-.0421.4824-.0874.96t-.0624.96a.2407.2407,0,0,0-.108.1664.9927.9927,0,0,0-.025.2078,1.1623,1.1623,0,0,0,.0082.1373.7431.7431,0,0,0,.0333.1454,3.7352,3.7352,0,0,0-.2162.7692q-.0665.3949-.15.7858-.0084.0249-.029.1122t-.0456.1788c-.0168.061-.0306.1151-.0418.1621s-.0165.0735-.0165.079l-.0041.1164.0041.1164-.1248.1248a3.3977,3.3977,0,0,1-.1205.611q-.0871.2953-.1788.6029l.1123.0125.1123.0042a3.8966,3.8966,0,0,0,.5362-.0375q.27-.0374.5364-.0706c.0609-.0111.1248-.0208.1913-.0292a1.5442,1.5442,0,0,1,.1913-.0125l.1-.0041.1-.0042.0874-.054.0873-.0457.1164.0249a.3118.3118,0,0,0,.1414-.0333Z"></path><path class="cls-1" d="M54.4842,16.6165V69.9018A3.5981,3.5981,0,0,0,58.072,73.49v1.4947H41.0745V73.49a3.5981,3.5981,0,0,0,3.5878-3.5877V17.804L35.45,65.222l2.0157,9.7622H27.4364L15.6,17.6671V69.9018A3.598,3.598,0,0,0,19.1878,73.49v1.4947H10.3047V73.49a3.5981,3.5981,0,0,0,3.5878-3.5877V16.6165a3.5989,3.5989,0,0,0-2.218-3.3139,5.92,5.92,0,0,0-1.7893-.2737V11.534H24.3636l1.0217,4.9465,3.07,14.8655,6.131,29.6965,8.84-45.5037.0028-.0118.7748-3.993H58.072v1.4949A3.598,3.598,0,0,0,54.4842,16.6165Z"></path><path class="cls-1" d="M167.7755,16.6165V69.9018A3.5978,3.5978,0,0,0,171.363,73.49v1.4947H154.3655V73.49a3.5981,3.5981,0,0,0,3.5878-3.5877V16.6165a3.598,3.598,0,0,0-3.5878-3.5876V11.534H171.363v1.4949A3.5978,3.5978,0,0,0,167.7755,16.6165Z"></path><path class="cls-1" d="M118.1489,75.7935A28.5879,28.5879,0,0,1,108.14,73.9916a28.951,28.951,0,0,1-2.78-1.2038,29.2093,29.2093,0,0,1-2.8,1.2111,28.5884,28.5884,0,0,1-9.9888,1.7955C75.77,75.7944,62.15,61.2273,62.15,43.2591S75.77,10.724,92.5709,10.724a28.59,28.59,0,0,1,9.9888,1.7945,29.2359,29.2359,0,0,1,2.8,1.2113,28.9266,28.9266,0,0,1,2.78-1.2039,28.5879,28.5879,0,0,1,10.0087-1.8019c16.8,0,30.42,14.5662,30.42,32.5351S134.9492,75.7944,118.1489,75.7935Zm4.8421-32.5344A34.5254,34.5254,0,0,1,121.2649,54.09c-3.1851,9.004-11.0366,9.2821-11.0366,9.2821l-.0036-.0037c3.041-6.5724,3.5649-15.879.8261-25.4164a42.8125,42.8125,0,0,0-7.7021-15.14q-.81-.9948-1.6616-1.8926A28.789,28.789,0,0,0,98.74,18.2041a24.1854,24.1854,0,0,0-1.9916-1.4322c-4.0546-2.6119-8.4093-3.5893-12.48-2.4206C74.0631,17.2828,69.5054,32.601,74.09,48.566c4.4581,15.524,15.918,25.9429,25.9312,23.8131.2853-.0606.568-.1313.8507-.2129a12.5673,12.5673,0,0,0,2.001-.7645q-1.2066-.7515-2.3408-1.6143A33.2228,33.2228,0,0,1,87.727,43.2591,34.5457,34.5457,0,0,1,89.33,32.8112c3.0928-9.3907,11.171-9.677,11.171-9.677-3.0478,6.5733-3.574,15.8872-.8326,25.4318a42.794,42.794,0,0,0,7.712,15.1516q.8046.9879,1.6507,1.88a28.6592,28.6592,0,0,0,2.9469,2.7161,24.2373,24.2373,0,0,0,1.9786,1.424c4.0584,2.6181,8.4177,3.5993,12.4935,2.4288,10.2062-2.9307,14.7629-18.2488,10.178-34.2149-4.4607-15.5337-15.9333-25.9562-25.9509-23.8076q-.4175.0885-.83.2076a12.5363,12.5363,0,0,0-2.0012.7654q1.2137.7557,2.3555,1.6253A33.2214,33.2214,0,0,1,122.991,43.2591Z"></path></svg> 